NotoSerif-CondensedLightItalic.ufo
<glyph name="tbar" format="2">
  <advance width="244"/>
  <unicode hex="0167"/>
  <anchor x="65" y="0" name="bottom"/>
  <anchor x="205" y="659" name="top"/>
  <anchor x="179" y="268" name="center"/>
  <anchor x="281" y="536" name="topright"/>
  <outline>
    <contour>
      <point x="35" y="319" type="line"/>
      <point x="103" y="319" type="line"/>
      <point x="121" y="319" type="line"/>
      <point x="210" y="319" type="line"/>
      <point x="215" y="344" type="line"/>
      <point x="129" y="344" type="line"/>
      <point x="106" y="344" type="line"/>
      <point x="40" y="344" type="line"/>
    </contour>
    <component base="t"/>
  </outline>
</glyph>
<glyph name="uni0191" format="2">
  <advance width="521"/>
  <unicode hex="0191"/>
  <anchor x="64" y="-10" name="bottom"/>
  <anchor x="398" y="714" name="top"/>
  <anchor x="601" y="714" name="topright"/>
  <outline>
    <contour>
      <point x="64" y="-10" type="curve" smooth="yes"/>
      <point x="146" y="-10"/>
      <point x="180" y="53"/>
      <point x="205" y="169" type="curve" smooth="yes"/>
      <point x="241" y="338" type="line"/>
      <point x="436" y="338" type="line"/>
      <point x="441" y="363" type="line"/>
      <point x="247" y="363" type="line"/>
      <point x="315" y="689" type="line"/>
      <point x="472" y="689" type="line" smooth="yes"/>
      <point x="524" y="689"/>
      <point x="529" y="686"/>
      <point x="529" y="656" type="curve" smooth="yes"/>
      <point x="529" y="636"/>
      <point x="522" y="586"/>
      <point x="517" y="554" type="curve"/>
      <point x="539" y="554" type="line"/>
      <point x="569" y="714" type="line"/>
      <point x="215" y="714" type="line"/>
      <point x="210" y="694" type="line"/>
      <point x="222" y="694" type="line" smooth="yes"/>
      <point x="273" y="694"/>
      <point x="277" y="692"/>
      <point x="277" y="656" type="curve" smooth="yes"/>
      <point x="277" y="646"/>
      <point x="273" y="620"/>
      <point x="267" y="591" type="curve" smooth="yes"/>
      <point x="177" y="169" type="line" smooth="yes"/>
      <point x="155" y="65"/>
      <point x="128" y="15"/>
      <point x="67" y="15" type="curve" smooth="yes"/>
      <point x="-1" y="15"/>
      <point x="-19" y="69"/>
      <point x="-16" y="146" type="curve"/>
      <point x="-28" y="146"/>
      <point x="-41" y="137"/>
      <point x="-41" y="103" type="curve" smooth="yes"/>
      <point x="-41" y="29"/>
      <point x="1" y="-10"/>
    </contour>
  </outline>
</glyph>
<glyph name="florin" format="2">
  <advance width="245"/>
  <unicode hex="0192"/>
  <anchor x="20" y="-12" name="bottom"/>
  <anchor x="330" y="770" name="top"/>
  <anchor x="415" y="770" name="topright"/>
  <outline>
    <contour>
      <point x="20" y="-12" type="curve" smooth="yes"/>
      <point x="85" y="-12"/>
      <point x="117" y="49"/>
      <point x="149" y="198" type="curve" smooth="yes"/>
      <point x="216" y="511" type="line"/>
      <point x="288" y="511" type="line"/>
      <point x="293" y="536" type="line"/>
      <point x="221" y="536" type="line"/>
      <point x="235" y="600" type="line" smooth="yes"/>
      <point x="255" y="693"/>
      <point x="279" y="745"/>
      <point x="325" y="745" type="curve" smooth="yes"/>
      <point x="362" y="745"/>
      <point x="371" y="724"/>
      <point x="371" y="676" type="curve"/>
      <point x="393" y="676"/>
      <point x="398" y="687"/>
      <point x="398" y="706" type="curve" smooth="yes"/>
      <point x="398" y="738"/>
      <point x="376" y="770"/>
      <point x="328" y="770" type="curve" smooth="yes"/>
      <point x="263" y="770"/>
      <point x="231" y="709"/>
      <point x="207" y="600" type="curve" smooth="yes"/>
      <point x="193" y="536" type="line"/>
      <point x="124" y="529" type="line"/>
      <point x="122" y="511" type="line"/>
      <point x="188" y="511" type="line"/>
      <point x="121" y="198" type="line" smooth="yes"/>
      <point x="93" y="65"/>
      <point x="69" y="13"/>
      <point x="23" y="13" type="curve" smooth="yes"/>
      <point x="-14" y="13"/>
      <point x="-23" y="34"/>
      <point x="-23" y="82" type="curve"/>
      <point x="-45" y="82"/>
      <point x="-50" y="71"/>
      <point x="-50" y="52" type="curve" smooth="yes"/>
      <point x="-50" y="20"/>
      <point x="-28" y="-12"/>
    </contour>
  </outline>
</glyph>
<glyph name="uni019A" format="2">
  <advance width="192"/>
  <unicode hex="019A"/>
  <anchor x="40" y="0" name="bottom"/>
  <anchor x="202" y="760" name="top"/>
  <anchor x="154" y="268" name="center"/>
  <anchor x="277" y="760" name="topright"/>
  <outline>
    <contour>
      <point x="26" y="378" type="line"/>
      <point x="194" y="378" type="line"/>
      <point x="199" y="403" type="line"/>
      <point x="31" y="403" type="line"/>
    </contour>
    <component base="l"/>
  </outline>
</glyph>
<glyph name="uni01C0" format="2">
  <advance width="324"/>
  <unicode hex="01C0"/>
  <anchor x="105" y="0" name="bottom"/>
  <anchor x="267" y="760" name="top"/>
  <outline>
    <contour>
      <point x="91" y="0" type="line"/>
      <point x="119" y="0" type="line"/>
      <point x="281" y="760" type="line"/>
      <point x="253" y="760" type="line"/>
    </contour>
  </outline>
</glyph>
<glyph name="uni023A" format="2">
  <advance width="511"/>
  <unicode hex="023A"/>
  <anchor x="199" y="0" name="bottom"/>
  <anchor x="351" y="714" name="top"/>
  <anchor x="586" y="714" name="topright"/>
  <outline>
    <contour>
      <point x="77" y="-102" type="line"/>
      <point x="101" y="-102" type="line"/>
      <point x="491" y="760" type="line"/>
      <point x="463.991" y="760" type="line"/>
    </contour>
    <component base="A"/>
  </outline>
</glyph>
<glyph name="uni023B" format="2">
  <advance width="456"/>
  <unicode hex="023B"/>
  <anchor x="202" y="0" name="bottom"/>
  <anchor x="344" y="714" name="top"/>
  <anchor x="531" y="714" name="topright"/>
  <outline>
    <contour>
      <point x="130" y="-44" type="line"/>
      <point x="155" y="-44" type="line"/>
      <point x="417" y="760" type="line"/>
      <point x="389" y="760" type="line"/>
    </contour>
    <component base="C"/>
  </outline>
</glyph>
<glyph name="uni0244" format="2">
  <advance width="574"/>
  <unicode hex="0244"/>
  <anchor x="223" y="0" name="bottom"/>
  <anchor x="375" y="714" name="top"/>
  <anchor x="635" y="714" name="topright"/>
  <outline>
    <contour>
      <point x="43" y="364" type="line"/>
      <point x="568" y="364" type="line"/>
      <point x="573" y="389" type="line"/>
      <point x="48" y="389" type="line"/>
    </contour>
    <component base="U"/>
  </outline>
</glyph>
<glyph name="uni0246" format="2">
  <advance width="475"/>
  <unicode hex="0246"/>
  <anchor x="180" y="0" name="bottom"/>
  <anchor x="332" y="714" name="top"/>
  <anchor x="550" y="714" name="topright"/>
  <outline>
    <contour>
      <point x="80" y="-94" type="line"/>
      <point x="107" y="-94" type="line"/>
      <point x="466" y="760" type="line"/>
      <point x="441" y="760" type="line"/>
    </contour>
    <component base="E"/>
  </outline>
</glyph>
<glyph name="uni0248" format="2">
  <advance width="245"/>
  <unicode hex="0248"/>
  <anchor x="13" y="-240" name="bottom"/>
  <anchor x="216" y="714" name="top"/>
  <anchor x="315" y="714" name="topright"/>
  <outline>
    <contour>
      <point x="42" y="363" type="line"/>
      <point x="249" y="363" type="line"/>
      <point x="254" y="388" type="line"/>
      <point x="47" y="388" type="line"/>
    </contour>
    <component base="J"/>
  </outline>
</glyph>
<glyph name="uni0249" format="2">
  <advance width="186"/>
  <unicode hex="0249"/>
  <anchor x="-15" y="-240" name="bottom"/>
  <anchor x="193" y="742" name="top"/>
  <anchor x="266" y="742" name="topright"/>
  <outline>
    <contour>
      <point x="6" y="268" type="line"/>
      <point x="180" y="268" type="line"/>
      <point x="185" y="293" type="line"/>
      <point x="11" y="293" type="line"/>
    </contour>
    <component base="j"/>
  </outline>
</glyph>
<glyph name="uni024D" format="2">
  <advance width="291"/>
  <unicode hex="024D"/>
  <anchor x="88" y="0" name="bottom"/>
  <anchor x="202" y="536" name="top"/>
  <anchor x="328" y="536" name="topright"/>
  <outline>
    <contour>
      <point x="6" y="268" type="line"/>
      <point x="214" y="268" type="line"/>
      <point x="219" y="293" type="line"/>
      <point x="11" y="293" type="line"/>
    </contour>
    <component base="r"/>
  </outline>
</glyph>
<glyph name="uni024E" format="2">
  <advance width="429"/>
  <unicode hex="024E"/>
  <anchor x="158" y="0" name="bottom"/>
  <anchor x="310" y="714" name="top"/>
  <anchor x="504" y="714" name="topright"/>
  <outline>
    <contour>
      <point x="64" y="559" type="line"/>
      <point x="473" y="559" type="line"/>
      <point x="477" y="584" type="line"/>
      <point x="69" y="584" type="line"/>
    </contour>
    <component base="Y"/>
  </outline>
</glyph>
<glyph name="uni0268" format="2">
  <advance width="192"/>
  <unicode hex="0268"/>
  <anchor x="40" y="0" name="bottom"/>
  <anchor x="197" y="742" name="top"/>
  <anchor x="273" y="742" name="topright"/>
  <outline>
    <contour>
      <point x="6" y="268" type="line"/>
      <point x="170" y="268" type="line"/>
      <point x="175" y="293" type="line"/>
      <point x="11" y="293" type="line"/>
    </contour>
    <component base="i"/>
  </outline>
</glyph>
<glyph name="uni02A2" format="2">
  <advance width="275"/>
  <unicode hex="02A2"/>
  <anchor x="67" y="0" name="bottom"/>
  <anchor x="231" y="776" name="top"/>
  <outline>
    <contour>
      <point x="26" y="205" type="line"/>
      <point x="229" y="205" type="line"/>
      <point x="234" y="230" type="line"/>
      <point x="31" y="230" type="line"/>
    </contour>
    <component base="uni0295"/>
  </outline>
</glyph>
<glyph name="uni02BE" format="2">
  <advance width="162"/>
  <unicode hex="02BE"/>
  <outline>
    <contour>
      <point x="98" y="575" type="line"/>
      <point x="162" y="575"/>
      <point x="219" y="619"/>
      <point x="219" y="694" type="curve" smooth="yes"/>
      <point x="219" y="753"/>
      <point x="177" y="781"/>
      <point x="140" y="781" type="curve"/>
      <point x="134" y="758" type="line"/>
      <point x="174" y="758"/>
      <point x="195" y="737"/>
      <point x="195" y="695" type="curve" smooth="yes"/>
      <point x="195" y="630"/>
      <point x="153" y="598"/>
      <point x="102" y="598" type="curve"/>
    </contour>
  </outline>
</glyph>
<glyph name="uni02C1" format="2">
  <advance width="194"/>
  <unicode hex="02C1"/>
  <outline>
    <contour>
      <point x="157" y="507" type="line"/>
      <point x="179" y="507" type="line"/>
      <point x="193" y="575" type="line"/>
      <point x="143" y="593"/>
      <point x="127" y="619"/>
      <point x="127" y="655" type="curve" smooth="yes"/>
      <point x="127" y="689"/>
      <point x="145" y="721"/>
      <point x="189" y="721" type="curve" smooth="yes"/>
      <point x="216" y="721"/>
      <point x="243" y="708"/>
      <point x="243" y="672" type="curve" smooth="yes"/>
      <point x="243" y="667"/>
      <point x="242" y="656"/>
      <point x="241" y="651" type="curve"/>
      <point x="255" y="651"/>
      <point x="265" y="659"/>
      <point x="265" y="677" type="curve" smooth="yes"/>
      <point x="265" y="723"/>
      <point x="230" y="745"/>
      <point x="190" y="745" type="curve" smooth="yes"/>
      <point x="130" y="745"/>
      <point x="99" y="697"/>
      <point x="99" y="655" type="curve" smooth="yes"/>
      <point x="99" y="610"/>
      <point x="126" y="578"/>
      <point x="167" y="559" type="curve"/>
    </contour>
  </outline>
</glyph>
<glyph name="macron" format="2">
  <advance width="278"/>
  <unicode hex="02C9"/>
  <outline>
    <contour>
      <point x="112" y="606" type="line"/>
      <point x="310" y="606" type="line"/>
      <point x="315" y="631" type="line"/>
      <point x="117" y="631" type="line"/>
    </contour>
  </outline>
</glyph>
<glyph name="uni02FC" format="2">
  <advance width="297"/>
  <unicode hex="02FC"/>
  <outline>
    <contour>
      <point x="-6" y="0" type="line"/>
      <point x="200" y="0" type="line"/>
      <point x="200" y="226" type="line"/>
      <point x="147" y="226" type="line"/>
      <point x="147" y="53" type="line"/>
      <point x="-6" y="53" type="line"/>
    </contour>
  </outline>
</glyph>
<glyph name="slashshortoverlaycomb" format="2">
  <unicode hex="0337"/>
  <anchor x="15" y="269" name="_center"/>
  <outline>
    <contour>
      <point x="-109" y="179" type="line"/>
      <point x="123" y="332" type="line"/>
      <point x="109" y="353" type="line"/>
      <point x="-123" y="200" type="line"/>
    </contour>
  </outline>
</glyph>
<glyph name="slashlongoverlaycomb" format="2">
  <unicode hex="0338"/>
  <anchor x="44" y="347" name="_center"/>
  <outline>
    <contour>
      <point x="-214" y="-75" type="line"/>
      <point x="270" y="753" type="line"/>
      <point x="246" y="767" type="line"/>
      <point x="-238" y="-61" type="line"/>
    </contour>
  </outline>
</glyph>
<glyph name="uni0375" format="2">
  <advance width="121"/>
  <unicode hex="0375"/>
  <outline>
    <contour>
      <point x="-81" y="-240" type="line"/>
      <point x="-52" y="-240" type="line"/>
      <point x="-34" y="-179"/>
      <point x="-21" y="-145"/>
      <point x="-9" y="-109" type="curve"/>
      <point x="-8" y="-99" type="line"/>
      <point x="-19" y="-99" type="line"/>
      <point x="-35" y="-126"/>
      <point x="-66" y="-190"/>
      <point x="-84" y="-232" type="curve"/>
    </contour>
  </outline>
</glyph>
<glyph name="afii10088" format="2">
  <advance width="401"/>
  <unicode hex="0446"/>
  <anchor x="95" y="-228" name="bottom"/>
  <anchor x="257" y="536" name="top"/>
  <anchor x="441" y="536" name="topright"/>
  <outline>
    <contour>
      <point x="245" y="-228" type="curve" smooth="yes"/>
      <point x="304" y="-228"/>
      <point x="333" y="-210"/>
      <point x="373" y="26" type="curve"/>
      <point x="358" y="43" type="line"/>
      <point x="347" y="10" type="line"/>
      <point x="323" y="-130"/>
      <point x="284" y="-203"/>
      <point x="247" y="-203" type="curve" smooth="yes"/>
      <point x="236" y="-203"/>
      <point x="224" y="-201"/>
      <point x="220" y="-199" type="curve"/>
      <point x="216" y="-225" type="line"/>
      <point x="221" y="-226"/>
      <point x="232" y="-228"/>
    </contour>
    <component base="u"/>
  </outline>
</glyph>
<glyph name="afii10193" format="2">
  <advance width="401"/>
  <unicode hex="045F"/>
  <anchor x="94" y="-232" name="bottom"/>
  <anchor x="257" y="536" name="top"/>
  <anchor x="441" y="536" name="topright"/>
  <outline>
    <contour>
      <point x="66" y="-228" type="curve" smooth="yes"/>
      <point x="121" y="-228"/>
      <point x="151" y="-208"/>
      <point x="187" y="-17" type="curve"/>
      <point x="163" y="-33" type="line"/>
      <point x="131" y="-171"/>
      <point x="101" y="-203"/>
      <point x="68" y="-203" type="curve" smooth="yes"/>
      <point x="57" y="-203"/>
      <point x="45" y="-201"/>
      <point x="41" y="-199" type="curve"/>
      <point x="37" y="-225" type="line"/>
      <point x="42" y="-226"/>
      <point x="53" y="-228"/>
    </contour>
    <component base="u"/>
  </outline>
</glyph>
<glyph name="uni048E" format="2">
  <advance width="449"/>
  <unicode hex="048E"/>
  <anchor x="168" y="0" name="bottom"/>
  <anchor x="320" y="714" name="top"/>
  <anchor x="524" y="714" name="topright"/>
  <outline>
    <contour>
      <point x="406" y="244" type="line"/>
      <point x="427" y="257" type="line"/>
      <point x="301" y="453" type="line"/>
      <point x="280" y="439" type="line"/>
    </contour>
    <component base="P"/>
  </outline>
</glyph>
<glyph name="uni048F" format="2">
  <advance width="411"/>
  <unicode hex="048F"/>
  <anchor x="-2" y="-240" name="bottom"/>
  <anchor x="263" y="536" name="top"/>
  <anchor x="418" y="536" name="topright"/>
  <outline>
    <contour>
      <point x="295" y="-39" type="line"/>
      <point x="318" y="-28" type="line"/>
      <point x="212" y="179" type="line"/>
      <point x="190" y="168" type="line"/>
    </contour>
    <component base="p"/>
  </outline>
</glyph>
<glyph name="uni04AD" format="2">
  <advance width="620"/>
  <unicode hex="04AD"/>
  <anchor x="214" y="-229" name="bottom"/>
  <anchor x="376" y="536" name="top"/>
  <anchor x="674" y="536" name="topright"/>
  <outline>
    <contour>
      <point x="454" y="-227" type="curve" smooth="yes"/>
      <point x="513" y="-227"/>
      <point x="542" y="-209"/>
      <point x="582" y="31" type="curve"/>
      <point x="567" y="48" type="line"/>
      <point x="556" y="15" type="line"/>
      <point x="532" y="-129"/>
      <point x="493" y="-202"/>
      <point x="456" y="-202" type="curve" smooth="yes"/>
      <point x="445" y="-202"/>
      <point x="433" y="-200"/>
      <point x="429" y="-198" type="curve"/>
      <point x="425" y="-224" type="line"/>
      <point x="430" y="-225"/>
      <point x="441" y="-227"/>
    </contour>
    <component base="m"/>
  </outline>
</glyph>
<glyph name="uni04B1" format="2">
  <advance width="379"/>
  <unicode hex="04B1"/>
  <anchor x="92" y="-240" name="bottom"/>
  <anchor x="257" y="536" name="top"/>
  <outline>
    <contour>
      <point x="8" y="-25" type="line"/>
      <point x="254" y="-25" type="line"/>
      <point x="259" y="0" type="line"/>
      <point x="13" y="0" type="line"/>
    </contour>
    <component base="uni04AF"/>
  </outline>
</glyph>
<glyph name="uni04BF" format="2">
  <advance width="410"/>
  <unicode hex="04BF"/>
  <anchor x="103" y="-210" name="bottom"/>
  <anchor x="262" y="536" name="top"/>
  <outline>
    <contour>
      <point x="153" y="-210" type="curve"/>
      <point x="173" y="-210" type="line"/>
      <point x="212" y="-33"/>
      <point x="221" y="-14"/>
      <point x="263" y="1" type="curve"/>
      <point x="156" y="3" type="line"/>
      <point x="174" y="-4"/>
      <point x="176" y="-21"/>
      <point x="176" y="-53" type="curve" smooth="yes"/>
      <point x="176" y="-84"/>
      <point x="168" y="-141"/>
    </contour>
    <component base="uni04BD"/>
  </outline>
</glyph>
<glyph name="uni04E8" format="2">
  <advance width="537"/>
  <unicode hex="04E8"/>
  <anchor x="212" y="0" name="bottom"/>
  <anchor x="364" y="714" name="top"/>
  <anchor x="307" y="357" name="center"/>
  <anchor x="612" y="714" name="topright"/>
  <outline>
    <contour>
      <point x="71" y="357" type="line"/>
      <point x="506" y="357" type="line"/>
      <point x="509" y="382" type="line"/>
      <point x="74" y="382" type="line"/>
    </contour>
    <component base="O"/>
  </outline>
</glyph>
<glyph name="uni051E" format="2">
  <advance width="496"/>
  <unicode hex="051E"/>
  <anchor x="191" y="0" name="bottom"/>
  <anchor x="343" y="714" name="top"/>
  <outline>
    <contour>
      <point x="424" y="462" type="line"/>
      <point x="440" y="481" type="line"/>
      <point x="284" y="618" type="line"/>
      <point x="268" y="599" type="line"/>
    </contour>
    <component base="afii10028"/>
  </outline>
</glyph>
<glyph name="uni1AB9" format="2">
  <unicode hex="1AB9"/>
  <anchor x="-305" y="0" name="_bottom"/>
  <anchor x="-325" y="-240" name="bottom"/>
  <outline>
    <contour>
      <point x="-359" y="-240" type="line"/>
      <point x="-269" y="27" type="line"/>
      <point x="-291" y="34" type="line"/>
      <point x="-381" y="-232" type="line"/>
    </contour>
  </outline>
</glyph>
<glyph name="uni1ABA" format="2">
  <unicode hex="1ABA"/>
  <anchor x="-316" y="0" name="_bottom"/>
  <anchor x="-340" y="-274" name="bottom"/>
  <outline>
    <contour>
      <point x="-359" y="-240" type="line"/>
      <point x="-269" y="27" type="line"/>
      <point x="-291" y="34" type="line"/>
      <point x="-381" y="-232" type="line"/>
    </contour>
    <contour>
      <point x="-371" y="-274" type="curve" smooth="yes"/>
      <point x="-356" y="-274"/>
      <point x="-341" y="-265"/>
      <point x="-341" y="-237" type="curve" smooth="yes"/>
      <point x="-341" y="-214"/>
      <point x="-352" y="-205"/>
      <point x="-369" y="-205" type="curve" smooth="yes"/>
      <point x="-389" y="-205"/>
      <point x="-400" y="-221"/>
      <point x="-400" y="-242" type="curve" smooth="yes"/>
      <point x="-400" y="-265"/>
      <point x="-390" y="-274"/>
    </contour>
  </outline>
</glyph>
<glyph name="uni1C88" format="2">
  <advance width="412"/>
  <unicode hex="1C88"/>
  <anchor x="149" y="0" name="bottom"/>
  <anchor x="321" y="767" name="top"/>
  <anchor x="263" y="268" name="center"/>
  <anchor x="449" y="536" name="topright"/>
  <outline>
    <contour>
      <point x="249" y="523" type="line"/>
      <point x="264" y="533" type="line"/>
      <point x="340" y="617"/>
      <point x="379" y="672"/>
      <point x="379" y="723" type="curve" smooth="yes"/>
      <point x="379" y="748"/>
      <point x="373" y="767"/>
      <point x="350" y="767" type="curve" smooth="yes"/>
      <point x="335" y="767"/>
      <point x="326" y="753"/>
      <point x="326" y="735" type="curve"/>
      <point x="347" y="735"/>
      <point x="353" y="729"/>
      <point x="353" y="717" type="curve" smooth="yes"/>
      <point x="353" y="681"/>
      <point x="326" y="633"/>
      <point x="263" y="562" type="curve"/>
      <point x="259" y="595"/>
      <point x="253" y="634"/>
      <point x="248" y="661" type="curve" smooth="yes"/>
      <point x="231" y="760" type="line"/>
      <point x="178" y="760" type="line"/>
      <point x="173" y="740" type="line"/>
      <point x="182" y="740" type="line" smooth="yes"/>
      <point x="207" y="740"/>
      <point x="210" y="739"/>
      <point x="219" y="689" type="curve" smooth="yes"/>
    </contour>
    <component base="o"/>
  </outline>
</glyph>
<glyph name="uni1D09" format="2">
  <advance width="201"/>
  <unicode hex="1D09"/>
  <anchor x="32" y="-117" name="bottom"/>
  <anchor x="171" y="536" name="top"/>
  <outline>
    <contour>
      <point x="-17" y="0" type="line"/>
      <point x="128" y="0" type="line"/>
      <point x="131" y="17" type="line"/>
      <point x="116" y="17" type="line" smooth="yes"/>
      <point x="92" y="17"/>
      <point x="80" y="22"/>
      <point x="80" y="42" type="curve" smooth="yes"/>
      <point x="80" y="51"/>
      <point x="83" y="65"/>
      <point x="86" y="81" type="curve" smooth="yes"/>
      <point x="166" y="454" type="line" smooth="yes"/>
      <point x="177" y="510"/>
      <point x="188" y="518"/>
      <point x="223" y="518" type="curve" smooth="yes"/>
      <point x="238" y="518" type="line"/>
      <point x="242" y="536" type="line"/>
      <point x="98" y="536" type="line"/>
      <point x="94" y="518" type="line"/>
      <point x="109" y="518" type="line" smooth="yes"/>
      <point x="134" y="518"/>
      <point x="145" y="514"/>
      <point x="145" y="494" type="curve" smooth="yes"/>
      <point x="145" y="485"/>
      <point x="143" y="472"/>
      <point x="139" y="455" type="curve" smooth="yes"/>
      <point x="60" y="83" type="line" smooth="yes"/>
      <point x="48" y="26"/>
      <point x="38" y="17"/>
      <point x="2" y="17" type="curve" smooth="yes"/>
      <point x="-13" y="17" type="line"/>
    </contour>
    <contour>
      <point x="39" y="-110" type="curve" smooth="yes"/>
      <point x="51" y="-110"/>
      <point x="64" y="-102"/>
      <point x="64" y="-77" type="curve" smooth="yes"/>
      <point x="64" y="-59"/>
      <point x="56" y="-51"/>
      <point x="41" y="-51" type="curve" smooth="yes"/>
      <point x="25" y="-51"/>
      <point x="16" y="-65"/>
      <point x="16" y="-83" type="curve" smooth="yes"/>
      <point x="16" y="-102"/>
      <point x="24" y="-110"/>
    </contour>
  </outline>
</glyph>
<glyph name="uni1D24" format="2">
  <advance width="335"/>
  <unicode hex="1D24"/>
  <anchor x="123" y="0" name="bottom"/>
  <anchor x="287" y="760" name="top"/>
  <outline>
    <contour>
      <point x="121" y="-10" type="curve" smooth="yes"/>
      <point x="206" y="-10"/>
      <point x="257" y="61"/>
      <point x="257" y="126" type="curve" smooth="yes"/>
      <point x="257" y="145"/>
      <point x="248" y="162"/>
      <point x="237" y="162" type="curve"/>
      <point x="236" y="86"/>
      <point x="203" y="15"/>
      <point x="123" y="15" type="curve" smooth="yes"/>
      <point x="63" y="15"/>
      <point x="26" y="58"/>
      <point x="26" y="123" type="curve" smooth="yes"/>
      <point x="26" y="221"/>
      <point x="106" y="277"/>
      <point x="204" y="315" type="curve"/>
      <point x="228" y="428" type="line"/>
      <point x="331" y="475"/>
      <point x="411" y="531"/>
      <point x="411" y="640" type="curve" smooth="yes"/>
      <point x="411" y="717"/>
      <point x="365" y="771"/>
      <point x="288" y="771" type="curve" smooth="yes"/>
      <point x="203" y="771"/>
      <point x="152" y="700"/>
      <point x="152" y="635" type="curve" smooth="yes"/>
      <point x="152" y="616"/>
      <point x="161" y="599"/>
      <point x="172" y="599" type="curve"/>
      <point x="173" y="675"/>
      <point x="206" y="746"/>
      <point x="286" y="746" type="curve" smooth="yes"/>
      <point x="346" y="746"/>
      <point x="383" y="703"/>
      <point x="383" y="638" type="curve" smooth="yes"/>
      <point x="383" y="540"/>
      <point x="303" y="484"/>
      <point x="205" y="446" type="curve"/>
      <point x="181" y="333" type="line"/>
      <point x="78" y="286"/>
      <point x="-2" y="230"/>
      <point x="-2" y="121" type="curve" smooth="yes"/>
      <point x="-2" y="44"/>
      <point x="44" y="-10"/>
    </contour>
  </outline>
</glyph>
<glyph name="uni1D7A" format="2">
  <advance width="575"/>
  <unicode hex="1D7A"/>
  <anchor x="65" y="0" name="bottom_1"/>
  <anchor x="327" y="0" name="bottom_2"/>
  <anchor x="179" y="268" name="center_1"/>
  <anchor x="441" y="268" name="center_2"/>
  <anchor x="205" y="659" name="top_1"/>
  <anchor x="489" y="760" name="top_2"/>
  <anchor x="281" y="536" name="topright_1"/>
  <anchor x="679" y="760" name="topright_2"/>
  <outline>
    <contour>
      <point x="-65" y="-145" type="line"/>
      <point x="-37" y="-145" type="line"/>
      <point x="510" y="760" type="line"/>
      <point x="482" y="760" type="line"/>
    </contour>
    <component base="t"/>
    <component base="h" xOffset="180"/>
  </outline>
</glyph>
<glyph name="uni1D7B" format="2">
  <advance width="206"/>
  <unicode hex="1D7B"/>
  <anchor x="43" y="0" name="bottom"/>
  <anchor x="157" y="536" name="top"/>
  <outline>
    <contour>
      <point x="29" y="266" type="line"/>
      <point x="174" y="266" type="line"/>
      <point x="178" y="291" type="line"/>
      <point x="34" y="291" type="line"/>
    </contour>
    <component base="uni026A"/>
  </outline>
</glyph>
<glyph name="uni1D7F" format="2">
  <advance width="412"/>
  <unicode hex="1D7F"/>
  <anchor x="149" y="-3" name="bottom"/>
  <anchor x="256" y="536" name="top"/>
  <outline>
    <contour>
      <point x="3" y="261" type="line"/>
      <point x="407" y="261" type="line"/>
      <point x="411" y="286" type="line"/>
      <point x="8" y="286" type="line"/>
    </contour>
    <component base="uni028A"/>
  </outline>
</glyph>
<glyph name="uni1D82" format="2">
  <advance width="252"/>
  <unicode hex="1D82"/>
  <anchor x="-81" y="-240" name="bottom"/>
  <anchor x="272" y="770" name="top"/>
  <anchor x="357" y="770" name="topright"/>
  <outline>
    <contour>
      <point x="87" y="-197" type="curve" smooth="yes"/>
      <point x="152" y="-197"/>
      <point x="171" y="-153"/>
      <point x="183" y="-97" type="curve" smooth="yes"/>
      <point x="225" y="104" type="line"/>
      <point x="70" y="104" type="line"/>
      <point x="65" y="79" type="line"/>
      <point x="194" y="79" type="line"/>
      <point x="158" y="-91" type="line" smooth="yes"/>
      <point x="145" y="-153"/>
      <point x="127" y="-172"/>
      <point x="90" y="-172" type="curve" smooth="yes"/>
      <point x="70" y="-172"/>
      <point x="62" y="-155"/>
      <point x="59" y="-141" type="curve"/>
      <point x="47" y="-144"/>
      <point x="41" y="-152"/>
      <point x="41" y="-162" type="curve" smooth="yes"/>
      <point x="41" y="-178"/>
      <point x="59" y="-197"/>
    </contour>
    <component base="f"/>
  </outline>
</glyph>
<glyph name="uni1D83" format="2">
  <advance width="462"/>
  <unicode hex="1D83"/>
  <anchor x="79" y="-240" name="bottom"/>
  <anchor x="244" y="536" name="top"/>
  <anchor x="407" y="536" name="topright"/>
  <outline>
    <contour>
      <point x="297" y="-197" type="curve" smooth="yes"/>
      <point x="362" y="-197"/>
      <point x="381" y="-153"/>
      <point x="393" y="-97" type="curve" smooth="yes"/>
      <point x="435" y="104" type="line"/>
      <point x="260" y="104" type="line"/>
      <point x="255" y="79" type="line"/>
      <point x="404" y="79" type="line"/>
      <point x="368" y="-91" type="line" smooth="yes"/>
      <point x="355" y="-153"/>
      <point x="337" y="-172"/>
      <point x="300" y="-172" type="curve" smooth="yes"/>
      <point x="280" y="-172"/>
      <point x="272" y="-155"/>
      <point x="269" y="-141" type="curve"/>
      <point x="257" y="-144"/>
      <point x="251" y="-152"/>
      <point x="251" y="-162" type="curve" smooth="yes"/>
      <point x="251" y="-178"/>
      <point x="269" y="-197"/>
    </contour>
    <component base="uni0261"/>
  </outline>
</glyph>
<glyph name="uni1E11" format="2">
  <advance width="400"/>
  <unicode hex="1E11"/>
  <anchor x="84" y="-231" name="bottom"/>
  <anchor x="293" y="760" name="top"/>
  <anchor x="245" y="268" name="center"/>
  <anchor x="460" y="760" name="topright"/>
  <outline>
    <contour>
      <point x="77" y="-230" type="curve" smooth="yes"/>
      <point x="151" y="-230"/>
      <point x="187" y="-189"/>
      <point x="187" y="-129" type="curve" smooth="yes"/>
      <point x="187" y="-86"/>
      <point x="168" y="-62"/>
      <point x="136" y="-47" type="curve"/>
      <point x="167" y="27" type="line"/>
      <point x="145" y="27" type="line"/>
      <point x="108" y="-60" type="line"/>
      <point x="143" y="-69"/>
      <point x="163" y="-92"/>
      <point x="163" y="-129" type="curve" smooth="yes"/>
      <point x="163" y="-178"/>
      <point x="132" y="-209"/>
      <point x="79" y="-209" type="curve" smooth="yes"/>
      <point x="65" y="-209"/>
      <point x="48" y="-206"/>
      <point x="35" y="-201" type="curve"/>
      <point x="27" y="-221" type="line"/>
      <point x="44" y="-228"/>
      <point x="68" y="-230"/>
    </contour>
    <component base="d"/>
  </outline>
</glyph>
<glyph name="uni1FCD" format="2">
  <advance width="55"/>
  <unicode hex="1FCD"/>
  <anchor x="43" y="536" name="_top"/>
  <anchor x="68" y="724" name="top"/>
  <outline>
    <contour>
      <point x="-9" y="573" type="line"/>
      <point x="62" y="582"/>
      <point x="88" y="621"/>
      <point x="88" y="684" type="curve" smooth="yes"/>
      <point x="88" y="720"/>
      <point x="74" y="742"/>
      <point x="54" y="742" type="curve" smooth="yes"/>
      <point x="34" y="742"/>
      <point x="24" y="728"/>
      <point x="24" y="711" type="curve" smooth="yes"/>
      <point x="24" y="680"/>
      <point x="59" y="681"/>
      <point x="59" y="647" type="curve" smooth="yes"/>
      <point x="59" y="623"/>
      <point x="36" y="599"/>
      <point x="-5" y="593" type="curve"/>
    </contour>
    <contour>
      <point x="171" y="580" type="curve"/>
      <point x="183" y="580" type="line"/>
      <point x="185" y="589" type="line"/>
      <point x="166" y="641"/>
      <point x="154" y="679"/>
      <point x="152" y="734" type="curve"/>
      <point x="125" y="734" type="line"/>
      <point x="121" y="724" type="line"/>
      <point x="128" y="675"/>
      <point x="142" y="635"/>
    </contour>
  </outline>
</glyph>
<glyph name="uni1FCE" format="2">
  <advance width="56"/>
  <unicode hex="1FCE"/>
  <anchor x="82" y="536" name="_top"/>
  <anchor x="105" y="724" name="top"/>
  <outline>
    <contour>
      <point x="-4" y="573" type="line"/>
      <point x="67" y="582"/>
      <point x="93" y="621"/>
      <point x="93" y="684" type="curve" smooth="yes"/>
      <point x="93" y="720"/>
      <point x="79" y="742"/>
      <point x="59" y="742" type="curve" smooth="yes"/>
      <point x="39" y="742"/>
      <point x="29" y="728"/>
      <point x="29" y="711" type="curve" smooth="yes"/>
      <point x="29" y="680"/>
      <point x="64" y="681"/>
      <point x="64" y="647" type="curve" smooth="yes"/>
      <point x="64" y="623"/>
      <point x="41" y="599"/>
      <point x="0" y="593" type="curve"/>
    </contour>
    <contour>
      <point x="105" y="574" type="line"/>
      <point x="117" y="574" type="line"/>
      <point x="151" y="614"/>
      <point x="187" y="684"/>
      <point x="201" y="724" type="curve"/>
      <point x="201" y="734" type="line"/>
      <point x="171" y="734" type="line"/>
      <point x="160" y="691"/>
      <point x="130" y="619"/>
      <point x="105" y="583" type="curve"/>
    </contour>
  </outline>
</glyph>
<glyph name="uni1FDE" format="2">
  <advance width="55"/>
  <unicode hex="1FDE"/>
  <anchor x="127" y="536" name="_top"/>
  <anchor x="151" y="724" name="top"/>
  <outline>
    <contour>
      <point x="135" y="574" type="line"/>
      <point x="147" y="574" type="line"/>
      <point x="181" y="614"/>
      <point x="217" y="684"/>
      <point x="231" y="724" type="curve"/>
      <point x="231" y="734" type="line"/>
      <point x="201" y="734" type="line"/>
      <point x="190" y="691"/>
      <point x="160" y="619"/>
      <point x="135" y="583" type="curve"/>
    </contour>
    <contour>
      <point x="112" y="573" type="curve"/>
      <point x="116" y="593" type="line"/>
      <point x="84" y="598"/>
      <point x="75" y="618"/>
      <point x="75" y="639" type="curve" smooth="yes"/>
      <point x="75" y="684"/>
      <point x="123" y="677"/>
      <point x="123" y="718" type="curve" smooth="yes"/>
      <point x="123" y="732"/>
      <point x="115" y="742"/>
      <point x="98" y="742" type="curve" smooth="yes"/>
      <point x="67" y="742"/>
      <point x="51" y="695"/>
      <point x="51" y="650" type="curve" smooth="yes"/>
      <point x="51" y="607"/>
      <point x="68" y="580"/>
    </contour>
  </outline>
</glyph>
<glyph name="uni1FDF" format="2">
  <advance width="317"/>
  <unicode hex="1FDF"/>
  <anchor x="191.009" y="536" name="_top"/>
  <anchor x="232" y="837" name="top"/>
  <outline>
    <contour>
      <point x="95" y="755" type="curve"/>
      <point x="117" y="755" type="line"/>
      <point x="128" y="788"/>
      <point x="139" y="809"/>
      <point x="170" y="809" type="curve" smooth="yes"/>
      <point x="214" y="809"/>
      <point x="225" y="744"/>
      <point x="277" y="744" type="curve" smooth="yes"/>
      <point x="321" y="744"/>
      <point x="341" y="770"/>
      <point x="358" y="823" type="curve"/>
      <point x="336" y="823" type="line"/>
      <point x="326" y="796"/>
      <point x="313" y="770"/>
      <point x="284" y="770" type="curve" smooth="yes"/>
      <point x="239" y="770"/>
      <point x="225" y="835"/>
      <point x="174" y="835" type="curve" smooth="yes"/>
      <point x="135" y="835"/>
      <point x="112" y="810"/>
    </contour>
    <contour>
      <point x="223" y="589" type="curve"/>
      <point x="230" y="609" type="line"/>
      <point x="191" y="609"/>
      <point x="178" y="618"/>
      <point x="180" y="639" type="curve" smooth="yes"/>
      <point x="182" y="669"/>
      <point x="234" y="657"/>
      <point x="234" y="696" type="curve" smooth="yes"/>
      <point x="234" y="710"/>
      <point x="228" y="722"/>
      <point x="209" y="722" type="curve" smooth="yes"/>
      <point x="175" y="722"/>
      <point x="157" y="670"/>
      <point x="157" y="641" type="curve" smooth="yes"/>
      <point x="157" y="604"/>
      <point x="174" y="589"/>
    </contour>
  </outline>
</glyph>
<glyph name="uni1FEF" format="2">
  <advance width="100"/>
  <unicode hex="1FEF"/>
  <anchor x="80" y="536" name="_top"/>
  <anchor x="111" y="739" name="top"/>
  <outline>
    <contour>
      <point x="147" y="578" type="curve"/>
      <point x="159" y="578" type="line"/>
      <point x="162" y="586" type="line"/>
      <point x="146" y="629"/>
      <point x="136" y="676"/>
      <point x="134" y="714" type="curve"/>
      <point x="106" y="714" type="line"/>
      <point x="103" y="706" type="line"/>
      <point x="116" y="652"/>
      <point x="124" y="627"/>
    </contour>
  </outline>
</glyph>
<glyph name="uni1FFD" format="2">
  <advance width="100"/>
  <unicode hex="1FFD"/>
  <anchor x="136" y="536" name="_top"/>
  <anchor x="161" y="711" name="top"/>
  <outline>
    <contour>
      <point x="83" y="578" type="line"/>
      <point x="95" y="578" type="line"/>
      <point x="129" y="618"/>
      <point x="155" y="664"/>
      <point x="171" y="704" type="curve"/>
      <point x="171" y="714" type="line"/>
      <point x="141" y="714" type="line"/>
      <point x="128" y="671"/>
      <point x="106" y="623"/>
      <point x="83" y="587" type="curve"/>
    </contour>
  </outline>
</glyph>
<glyph name="uni2066" format="2">
  <advance width="1000"/>
  <unicode hex="2066"/>
  <outline>
    <contour>
      <point x="436" y="164" type="line"/>
      <point x="574" y="164" type="line"/>
      <point x="574" y="185" type="line"/>
      <point x="557" y="185" type="line" smooth="yes"/>
      <point x="546" y="185"/>
      <point x="536" y="188"/>
      <point x="536" y="209" type="curve" smooth="yes"/>
      <point x="536" y="288" type="line"/>
      <point x="563" y="288" type="line"/>
      <point x="610" y="200" type="line" smooth="yes"/>
      <point x="626" y="170"/>
      <point x="648" y="164"/>
      <point x="695" y="164" type="curve" smooth="yes"/>
      <point x="709" y="164" type="line"/>
      <point x="709" y="185" type="line"/>
      <point x="707" y="185" type="line" smooth="yes"/>
      <point x="692" y="185"/>
      <point x="681" y="195"/>
      <point x="667" y="218" type="curve" smooth="yes"/>
      <point x="620" y="300" type="line"/>
      <point x="646" y="311"/>
      <point x="674" y="334"/>
      <point x="674" y="376" type="curve" smooth="yes"/>
      <point x="674" y="424"/>
      <point x="640" y="450"/>
      <point x="565" y="450" type="curve" smooth="yes"/>
      <point x="436" y="450" type="line"/>
      <point x="436" y="429" type="line"/>
      <point x="453" y="429" type="line" smooth="yes"/>
      <point x="464" y="429"/>
      <point x="473" y="426"/>
      <point x="473" y="405" type="curve" smooth="yes"/>
      <point x="473" y="209" type="line" smooth="yes"/>
      <point x="473" y="188"/>
      <point x="464" y="185"/>
      <point x="453" y="185" type="curve" smooth="yes"/>
      <point x="436" y="185" type="line"/>
    </contour>
    <contour>
      <point x="51" y="-187" type="line"/>
      <point x="199" y="-187" type="line"/>
      <point x="199" y="-134" type="line"/>
      <point x="105" y="-134" type="line"/>
      <point x="105" y="-39" type="line"/>
      <point x="51" y="-39" type="line"/>
    </contour>
    <contour>
      <point x="51" y="19" type="line"/>
      <point x="105" y="19" type="line"/>
      <point x="105" y="151" type="line"/>
      <point x="51" y="151" type="line"/>
    </contour>
    <contour>
      <point x="258" y="-187" type="line"/>
      <point x="390" y="-187" type="line"/>
      <point x="390" y="-134" type="line"/>
      <point x="258" y="-134" type="line"/>
    </contour>
    <contour>
      <point x="51" y="210" type="line"/>
      <point x="105" y="210" type="line"/>
      <point x="105" y="343" type="line"/>
      <point x="51" y="343" type="line"/>
    </contour>
    <contour>
      <point x="449" y="-187" type="line"/>
      <point x="582" y="-187" type="line"/>
      <point x="582" y="-134" type="line"/>
      <point x="449" y="-134" type="line"/>
    </contour>
    <contour>
      <point x="640" y="-187" type="line"/>
      <point x="773" y="-187" type="line"/>
      <point x="773" y="-134" type="line"/>
      <point x="640" y="-134" type="line"/>
    </contour>
    <contour>
      <point x="51" y="402" type="line"/>
      <point x="105" y="402" type="line"/>
      <point x="105" y="534" type="line"/>
      <point x="51" y="534" type="line"/>
    </contour>
    <contour>
      <point x="175" y="164" type="line"/>
      <point x="409" y="164" type="line"/>
      <point x="412" y="253" type="line"/>
      <point x="389" y="253" type="line"/>
      <point x="383" y="223" type="line" smooth="yes"/>
      <point x="378" y="201"/>
      <point x="368" y="188"/>
      <point x="350" y="188" type="curve" smooth="yes"/>
      <point x="276" y="188" type="line"/>
      <point x="276" y="405" type="line"/>
      <point x="276" y="426"/>
      <point x="285" y="429"/>
      <point x="296" y="429" type="curve" smooth="yes"/>
      <point x="313" y="429" type="line"/>
      <point x="313" y="450" type="line"/>
      <point x="175" y="450" type="line"/>
      <point x="175" y="429" type="line"/>
      <point x="192" y="429" type="line" smooth="yes"/>
      <point x="204" y="429"/>
      <point x="212" y="426"/>
      <point x="212" y="403" type="curve" smooth="yes"/>
      <point x="212" y="211" type="line" smooth="yes"/>
      <point x="212" y="188"/>
      <point x="204" y="185"/>
      <point x="192" y="185" type="curve" smooth="yes"/>
      <point x="175" y="185" type="line"/>
    </contour>
    <contour>
      <point x="51" y="593" type="line"/>
      <point x="105" y="593" type="line"/>
      <point x="105" y="687" type="line"/>
      <point x="199" y="687" type="line"/>
      <point x="199" y="741" type="line"/>
      <point x="51" y="741" type="line"/>
    </contour>
    <contour>
      <point x="831" y="-187" type="line"/>
      <point x="979" y="-187" type="line"/>
      <point x="979" y="-39" type="line"/>
      <point x="926" y="-39" type="line"/>
      <point x="926" y="-134" type="line"/>
      <point x="831" y="-134" type="line"/>
    </contour>
    <contour>
      <point x="536" y="312" type="line"/>
      <point x="536" y="427" type="line"/>
      <point x="558" y="427" type="line" smooth="yes"/>
      <point x="593" y="427"/>
      <point x="607" y="411"/>
      <point x="607" y="371" type="curve" smooth="yes"/>
      <point x="607" y="331"/>
      <point x="595" y="312"/>
      <point x="559" y="312" type="curve" smooth="yes"/>
    </contour>
    <contour>
      <point x="926" y="19" type="line"/>
      <point x="979" y="19" type="line"/>
      <point x="979" y="151" type="line"/>
      <point x="926" y="151" type="line"/>
    </contour>
    <contour>
      <point x="258" y="687" type="line"/>
      <point x="390" y="687" type="line"/>
      <point x="390" y="741" type="line"/>
      <point x="258" y="741" type="line"/>
    </contour>
    <contour>
      <point x="718" y="164" type="line"/>
      <point x="856" y="164" type="line"/>
      <point x="856" y="185" type="line"/>
      <point x="839" y="185" type="line"/>
      <point x="828" y="185"/>
      <point x="819" y="188"/>
      <point x="819" y="211" type="curve"/>
      <point x="819" y="403" type="line"/>
      <point x="819" y="426"/>
      <point x="828" y="429"/>
      <point x="839" y="429" type="curve"/>
      <point x="856" y="429" type="line"/>
      <point x="856" y="450" type="line"/>
      <point x="718" y="450" type="line"/>
      <point x="718" y="429" type="line"/>
      <point x="735" y="429" type="line"/>
      <point x="747" y="429"/>
      <point x="755" y="426"/>
      <point x="755" y="403" type="curve"/>
      <point x="755" y="211" type="line"/>
      <point x="755" y="188"/>
      <point x="747" y="185"/>
      <point x="735" y="185" type="curve"/>
      <point x="718" y="185" type="line"/>
    </contour>
    <contour>
      <point x="926" y="210" type="line"/>
      <point x="979" y="210" type="line"/>
      <point x="979" y="343" type="line"/>
      <point x="926" y="343" type="line"/>
    </contour>
    <contour>
      <point x="449" y="687" type="line"/>
      <point x="582" y="687" type="line"/>
      <point x="582" y="741" type="line"/>
      <point x="449" y="741" type="line"/>
    </contour>
    <contour>
      <point x="926" y="402" type="line"/>
      <point x="979" y="402" type="line"/>
      <point x="979" y="534" type="line"/>
      <point x="926" y="534" type="line"/>
    </contour>
    <contour>
      <point x="640" y="687" type="line"/>
      <point x="773" y="687" type="line"/>
      <point x="773" y="741" type="line"/>
      <point x="640" y="741" type="line"/>
    </contour>
    <contour>
      <point x="926" y="593" type="line"/>
      <point x="979" y="593" type="line"/>
      <point x="979" y="741" type="line"/>
      <point x="831" y="741" type="line"/>
      <point x="831" y="687" type="line"/>
      <point x="926" y="687" type="line"/>
    </contour>
  </outline>
</glyph>
<glyph name="uni2068" format="2">
  <advance width="1000"/>
  <unicode hex="2068"/>
  <outline>
    <contour>
      <point x="206" y="164" type="line"/>
      <point x="352" y="164" type="line"/>
      <point x="352" y="185" type="line"/>
      <point x="327" y="185" type="line"/>
      <point x="315" y="185"/>
      <point x="306" y="188"/>
      <point x="306" y="211" type="curve"/>
      <point x="306" y="293" type="line"/>
      <point x="401" y="293" type="line"/>
      <point x="401" y="316" type="line"/>
      <point x="306" y="316" type="line"/>
      <point x="306" y="426" type="line"/>
      <point x="370" y="426" type="line"/>
      <point x="386" y="426"/>
      <point x="397" y="417"/>
      <point x="399" y="396" type="curve" smooth="yes"/>
      <point x="401" y="377" type="line"/>
      <point x="429" y="377" type="line"/>
      <point x="427" y="450" type="line"/>
      <point x="206" y="450" type="line"/>
      <point x="206" y="429" type="line"/>
      <point x="223" y="429" type="line"/>
      <point x="234" y="429"/>
      <point x="243" y="426"/>
      <point x="243" y="405" type="curve" smooth="yes"/>
      <point x="243" y="209" type="line" smooth="yes"/>
      <point x="243" y="188"/>
      <point x="234" y="185"/>
      <point x="223" y="185" type="curve"/>
      <point x="206" y="185" type="line"/>
    </contour>
    <contour>
      <point x="51" y="-187" type="line"/>
      <point x="199" y="-187" type="line"/>
      <point x="199" y="-134" type="line"/>
      <point x="105" y="-134" type="line"/>
      <point x="105" y="-39" type="line"/>
      <point x="51" y="-39" type="line"/>
    </contour>
    <contour>
      <point x="51" y="19" type="line"/>
      <point x="105" y="19" type="line"/>
      <point x="105" y="151" type="line"/>
      <point x="51" y="151" type="line"/>
    </contour>
    <contour>
      <point x="258" y="-187" type="line"/>
      <point x="390" y="-187" type="line"/>
      <point x="390" y="-134" type="line"/>
      <point x="258" y="-134" type="line"/>
    </contour>
    <contour>
      <point x="51" y="210" type="line"/>
      <point x="105" y="210" type="line"/>
      <point x="105" y="343" type="line"/>
      <point x="51" y="343" type="line"/>
    </contour>
    <contour>
      <point x="449" y="-187" type="line"/>
      <point x="582" y="-187" type="line"/>
      <point x="582" y="-134" type="line"/>
      <point x="449" y="-134" type="line"/>
    </contour>
    <contour>
      <point x="640" y="-187" type="line"/>
      <point x="773" y="-187" type="line"/>
      <point x="773" y="-134" type="line"/>
      <point x="640" y="-134" type="line"/>
    </contour>
    <contour>
      <point x="51" y="402" type="line"/>
      <point x="105" y="402" type="line"/>
      <point x="105" y="534" type="line"/>
      <point x="51" y="534" type="line"/>
    </contour>
    <contour>
      <point x="51" y="593" type="line"/>
      <point x="105" y="593" type="line"/>
      <point x="105" y="687" type="line"/>
      <point x="199" y="687" type="line"/>
      <point x="199" y="741" type="line"/>
      <point x="51" y="741" type="line"/>
    </contour>
    <contour>
      <point x="831" y="-187" type="line"/>
      <point x="979" y="-187" type="line"/>
      <point x="979" y="-39" type="line"/>
      <point x="926" y="-39" type="line"/>
      <point x="926" y="-134" type="line"/>
      <point x="831" y="-134" type="line"/>
    </contour>
    <contour>
      <point x="548" y="160" type="curve" smooth="yes"/>
      <point x="614" y="160"/>
      <point x="657" y="196"/>
      <point x="657" y="248" type="curve" smooth="yes"/>
      <point x="657" y="287"/>
      <point x="635" y="310"/>
      <point x="580" y="333" type="curve" smooth="yes"/>
      <point x="527" y="354"/>
      <point x="515" y="370"/>
      <point x="515" y="393" type="curve" smooth="yes"/>
      <point x="515" y="417"/>
      <point x="533" y="430"/>
      <point x="554" y="430" type="curve" smooth="yes"/>
      <point x="585" y="430"/>
      <point x="596" y="397"/>
      <point x="596" y="375" type="curve"/>
      <point x="629" y="375"/>
      <point x="645" y="389"/>
      <point x="645" y="408" type="curve" smooth="yes"/>
      <point x="645" y="434"/>
      <point x="619" y="454"/>
      <point x="560" y="454" type="curve" smooth="yes"/>
      <point x="504" y="454"/>
      <point x="463" y="423"/>
      <point x="463" y="374" type="curve" smooth="yes"/>
      <point x="463" y="334"/>
      <point x="481" y="309"/>
      <point x="537" y="286" type="curve" smooth="yes"/>
      <point x="582" y="268"/>
      <point x="604" y="255"/>
      <point x="604" y="227" type="curve" smooth="yes"/>
      <point x="604" y="203"/>
      <point x="586" y="184"/>
      <point x="554" y="184" type="curve" smooth="yes"/>
      <point x="523" y="184"/>
      <point x="500" y="208"/>
      <point x="500" y="253" type="curve"/>
      <point x="477" y="253"/>
      <point x="455" y="243"/>
      <point x="455" y="216" type="curve" smooth="yes"/>
      <point x="455" y="190"/>
      <point x="477" y="160"/>
    </contour>
    <contour>
      <point x="926" y="19" type="line"/>
      <point x="979" y="19" type="line"/>
      <point x="979" y="151" type="line"/>
      <point x="926" y="151" type="line"/>
    </contour>
    <contour>
      <point x="258" y="687" type="line"/>
      <point x="390" y="687" type="line"/>
      <point x="390" y="741" type="line"/>
      <point x="258" y="741" type="line"/>
    </contour>
    <contour>
      <point x="688" y="164" type="line"/>
      <point x="825" y="164" type="line"/>
      <point x="825" y="185" type="line"/>
      <point x="809" y="185" type="line"/>
      <point x="797" y="185"/>
      <point x="788" y="188"/>
      <point x="788" y="211" type="curve"/>
      <point x="788" y="403" type="line"/>
      <point x="788" y="426"/>
      <point x="797" y="429"/>
      <point x="809" y="429" type="curve"/>
      <point x="825" y="429" type="line"/>
      <point x="825" y="450" type="line"/>
      <point x="688" y="450" type="line"/>
      <point x="688" y="429" type="line"/>
      <point x="705" y="429" type="line"/>
      <point x="716" y="429"/>
      <point x="725" y="426"/>
      <point x="725" y="403" type="curve"/>
      <point x="725" y="211" type="line"/>
      <point x="725" y="188"/>
      <point x="716" y="185"/>
      <point x="705" y="185" type="curve"/>
      <point x="688" y="185" type="line"/>
    </contour>
    <contour>
      <point x="926" y="210" type="line"/>
      <point x="979" y="210" type="line"/>
      <point x="979" y="343" type="line"/>
      <point x="926" y="343" type="line"/>
    </contour>
    <contour>
      <point x="449" y="687" type="line"/>
      <point x="582" y="687" type="line"/>
      <point x="582" y="741" type="line"/>
      <point x="449" y="741" type="line"/>
    </contour>
    <contour>
      <point x="926" y="402" type="line"/>
      <point x="979" y="402" type="line"/>
      <point x="979" y="534" type="line"/>
      <point x="926" y="534" type="line"/>
    </contour>
    <contour>
      <point x="640" y="687" type="line"/>
      <point x="773" y="687" type="line"/>
      <point x="773" y="741" type="line"/>
      <point x="640" y="741" type="line"/>
    </contour>
    <contour>
      <point x="926" y="593" type="line"/>
      <point x="979" y="593" type="line"/>
      <point x="979" y="741" type="line"/>
      <point x="831" y="741" type="line"/>
      <point x="831" y="687" type="line"/>
      <point x="926" y="687" type="line"/>
    </contour>
  </outline>
</glyph>
<glyph name="uni2069" format="2">
  <advance width="1000"/>
  <unicode hex="2069"/>
  <outline>
    <contour>
      <point x="421" y="164" type="line"/>
      <point x="552" y="164" type="line"/>
      <point x="645" y="164"/>
      <point x="694" y="225"/>
      <point x="694" y="312" type="curve" smooth="yes"/>
      <point x="694" y="403"/>
      <point x="641" y="450"/>
      <point x="552" y="450" type="curve"/>
      <point x="421" y="450" type="line"/>
      <point x="421" y="429" type="line"/>
      <point x="437" y="429" type="line"/>
      <point x="449" y="429"/>
      <point x="458" y="426"/>
      <point x="458" y="405" type="curve" smooth="yes"/>
      <point x="458" y="211" type="line"/>
      <point x="458" y="188"/>
      <point x="449" y="185"/>
      <point x="437" y="185" type="curve"/>
      <point x="421" y="185" type="line"/>
    </contour>
    <contour>
      <point x="51" y="-187" type="line"/>
      <point x="199" y="-187" type="line"/>
      <point x="199" y="-134" type="line"/>
      <point x="105" y="-134" type="line"/>
      <point x="105" y="-39" type="line"/>
      <point x="51" y="-39" type="line"/>
    </contour>
    <contour>
      <point x="51" y="19" type="line"/>
      <point x="105" y="19" type="line"/>
      <point x="105" y="151" type="line"/>
      <point x="51" y="151" type="line"/>
    </contour>
    <contour>
      <point x="258" y="-187" type="line"/>
      <point x="390" y="-187" type="line"/>
      <point x="390" y="-134" type="line"/>
      <point x="258" y="-134" type="line"/>
    </contour>
    <contour>
      <point x="51" y="210" type="line"/>
      <point x="105" y="210" type="line"/>
      <point x="105" y="343" type="line"/>
      <point x="51" y="343" type="line"/>
    </contour>
    <contour>
      <point x="449" y="-187" type="line"/>
      <point x="582" y="-187" type="line"/>
      <point x="582" y="-134" type="line"/>
      <point x="449" y="-134" type="line"/>
    </contour>
    <contour>
      <point x="640" y="-187" type="line"/>
      <point x="773" y="-187" type="line"/>
      <point x="773" y="-134" type="line"/>
      <point x="640" y="-134" type="line"/>
    </contour>
    <contour>
      <point x="51" y="402" type="line"/>
      <point x="105" y="402" type="line"/>
      <point x="105" y="534" type="line"/>
      <point x="51" y="534" type="line"/>
    </contour>
    <contour>
      <point x="166" y="164" type="line"/>
      <point x="312" y="164" type="line"/>
      <point x="312" y="185" type="line"/>
      <point x="287" y="185" type="line"/>
      <point x="276" y="185"/>
      <point x="266" y="188"/>
      <point x="266" y="209" type="curve" smooth="yes"/>
      <point x="266" y="273" type="line"/>
      <point x="280" y="273" type="line"/>
      <point x="366" y="273"/>
      <point x="398" y="317"/>
      <point x="398" y="365" type="curve" smooth="yes"/>
      <point x="398" y="418"/>
      <point x="362" y="450"/>
      <point x="289" y="450" type="curve" smooth="yes"/>
      <point x="166" y="450" type="line"/>
      <point x="166" y="429" type="line"/>
      <point x="183" y="429" type="line"/>
      <point x="194" y="429"/>
      <point x="203" y="426"/>
      <point x="203" y="405" type="curve" smooth="yes"/>
      <point x="203" y="211" type="line"/>
      <point x="203" y="188"/>
      <point x="195" y="185"/>
      <point x="183" y="185" type="curve"/>
      <point x="166" y="185" type="line"/>
    </contour>
    <contour>
      <point x="266" y="297" type="line"/>
      <point x="266" y="427" type="line"/>
      <point x="282" y="427" type="line"/>
      <point x="317" y="427"/>
      <point x="331" y="407"/>
      <point x="331" y="364" type="curve" smooth="yes"/>
      <point x="331" y="316"/>
      <point x="315" y="297"/>
      <point x="276" y="297" type="curve"/>
    </contour>
    <contour>
      <point x="51" y="593" type="line"/>
      <point x="105" y="593" type="line"/>
      <point x="105" y="687" type="line"/>
      <point x="199" y="687" type="line"/>
      <point x="199" y="741" type="line"/>
      <point x="51" y="741" type="line"/>
    </contour>
    <contour>
      <point x="831" y="-187" type="line"/>
      <point x="979" y="-187" type="line"/>
      <point x="979" y="-39" type="line"/>
      <point x="926" y="-39" type="line"/>
      <point x="926" y="-134" type="line"/>
      <point x="831" y="-134" type="line"/>
    </contour>
    <contour>
      <point x="521" y="189" type="line"/>
      <point x="521" y="426" type="line"/>
      <point x="544" y="426" type="line"/>
      <point x="598" y="426"/>
      <point x="626" y="389"/>
      <point x="626" y="312" type="curve" smooth="yes"/>
      <point x="626" y="236"/>
      <point x="598" y="189"/>
      <point x="543" y="189" type="curve"/>
    </contour>
    <contour>
      <point x="926" y="19" type="line"/>
      <point x="979" y="19" type="line"/>
      <point x="979" y="151" type="line"/>
      <point x="926" y="151" type="line"/>
    </contour>
    <contour>
      <point x="258" y="687" type="line"/>
      <point x="390" y="687" type="line"/>
      <point x="390" y="741" type="line"/>
      <point x="258" y="741" type="line"/>
    </contour>
    <contour>
      <point x="727" y="164" type="line"/>
      <point x="864" y="164" type="line"/>
      <point x="864" y="185" type="line"/>
      <point x="848" y="185" type="line"/>
      <point x="836" y="185"/>
      <point x="827" y="188"/>
      <point x="827" y="211" type="curve"/>
      <point x="827" y="403" type="line"/>
      <point x="827" y="426"/>
      <point x="836" y="429"/>
      <point x="848" y="429" type="curve"/>
      <point x="864" y="429" type="line"/>
      <point x="864" y="450" type="line"/>
      <point x="727" y="450" type="line"/>
      <point x="727" y="429" type="line"/>
      <point x="744" y="429" type="line"/>
      <point x="755" y="429"/>
      <point x="764" y="426"/>
      <point x="764" y="403" type="curve"/>
      <point x="764" y="211" type="line"/>
      <point x="764" y="188"/>
      <point x="755" y="185"/>
      <point x="744" y="185" type="curve"/>
      <point x="727" y="185" type="line"/>
    </contour>
    <contour>
      <point x="926" y="210" type="line"/>
      <point x="979" y="210" type="line"/>
      <point x="979" y="343" type="line"/>
      <point x="926" y="343" type="line"/>
    </contour>
    <contour>
      <point x="449" y="687" type="line"/>
      <point x="582" y="687" type="line"/>
      <point x="582" y="741" type="line"/>
      <point x="449" y="741" type="line"/>
    </contour>
    <contour>
      <point x="926" y="402" type="line"/>
      <point x="979" y="402" type="line"/>
      <point x="979" y="534" type="line"/>
      <point x="926" y="534" type="line"/>
    </contour>
    <contour>
      <point x="640" y="687" type="line"/>
      <point x="773" y="687" type="line"/>
      <point x="773" y="741" type="line"/>
      <point x="640" y="741" type="line"/>
    </contour>
    <contour>
      <point x="926" y="593" type="line"/>
      <point x="979" y="593" type="line"/>
      <point x="979" y="741" type="line"/>
      <point x="831" y="741" type="line"/>
      <point x="831" y="687" type="line"/>
      <point x="926" y="687" type="line"/>
    </contour>
  </outline>
</glyph>
<glyph name="equalsuperior" format="2">
  <advance width="294"/>
  <unicode hex="207C"/>
  <outline>
    <contour>
      <point x="29" y="543" type="line"/>
      <point x="263" y="543" type="line"/>
      <point x="263" y="571" type="line"/>
      <point x="29" y="571" type="line"/>
    </contour>
    <contour>
      <point x="29" y="392" type="line"/>
      <point x="263" y="392" type="line"/>
      <point x="263" y="420" type="line"/>
      <point x="29" y="420" type="line"/>
    </contour>
  </outline>
</glyph>
<glyph name="parenleftsuperior" format="2">
  <advance width="196"/>
  <unicode hex="207D"/>
  <outline>
    <contour>
      <point x="185" y="195" type="curve"/>
      <point x="190" y="220" type="line"/>
      <point x="147" y="263"/>
      <point x="123" y="353"/>
      <point x="123" y="421" type="curve" smooth="yes"/>
      <point x="123" y="593"/>
      <point x="198" y="718"/>
      <point x="305" y="762" type="curve"/>
      <point x="311" y="787" type="line"/>
      <point x="190" y="745"/>
      <point x="95" y="620"/>
      <point x="95" y="420" type="curve" smooth="yes"/>
      <point x="95" y="346"/>
      <point x="127" y="241"/>
    </contour>
  </outline>
</glyph>
<glyph name="parenrightsuperior" format="2">
  <advance width="196"/>
  <unicode hex="207E"/>
  <outline>
    <contour>
      <point x="-18" y="195" type="line"/>
      <point x="103" y="237"/>
      <point x="198" y="362"/>
      <point x="198" y="562" type="curve" smooth="yes"/>
      <point x="198" y="636"/>
      <point x="166" y="741"/>
      <point x="108" y="787" type="curve"/>
      <point x="103" y="762" type="line"/>
      <point x="146" y="719"/>
      <point x="170" y="629"/>
      <point x="170" y="561" type="curve" smooth="yes"/>
      <point x="170" y="389"/>
      <point x="95" y="264"/>
      <point x="-12" y="220" type="curve"/>
    </contour>
  </outline>
</glyph>
<glyph name="parenleftinferior" format="2">
  <advance width="196"/>
  <unicode hex="208D"/>
  <outline>
    <contour>
      <point x="109" y="-288" type="curve"/>
      <point x="114" y="-263" type="line"/>
      <point x="71" y="-220"/>
      <point x="47" y="-130"/>
      <point x="47" y="-62" type="curve" smooth="yes"/>
      <point x="47" y="110"/>
      <point x="122" y="235"/>
      <point x="229" y="279" type="curve"/>
      <point x="235" y="304" type="line"/>
      <point x="114" y="262"/>
      <point x="19" y="137"/>
      <point x="19" y="-63" type="curve" smooth="yes"/>
      <point x="19" y="-137"/>
      <point x="51" y="-242"/>
    </contour>
  </outline>
</glyph>
<glyph name="parenrightinferior" format="2">
  <advance width="196"/>
  <unicode hex="208E"/>
  <outline>
    <contour>
      <point x="-93" y="-288" type="line"/>
      <point x="28" y="-246"/>
      <point x="123" y="-121"/>
      <point x="123" y="79" type="curve" smooth="yes"/>
      <point x="123" y="153"/>
      <point x="91" y="258"/>
      <point x="33" y="304" type="curve"/>
      <point x="28" y="279" type="line"/>
      <point x="71" y="236"/>
      <point x="95" y="146"/>
      <point x="95" y="78" type="curve" smooth="yes"/>
      <point x="95" y="-94"/>
      <point x="20" y="-219"/>
      <point x="-87" y="-263" type="curve"/>
    </contour>
  </outline>
</glyph>
<glyph name="uni20A5" format="2">
  <advance width="609"/>
  <unicode hex="20A5"/>
  <anchor x="262" y="0" name="bottom"/>
  <anchor x="376" y="536" name="top"/>
  <anchor x="674" y="536" name="topright"/>
  <outline>
    <contour>
      <point x="142" y="-95" type="line"/>
      <point x="168" y="-95" type="line"/>
      <point x="485" y="666" type="line"/>
      <point x="460" y="666" type="line"/>
    </contour>
    <component base="m"/>
  </outline>
</glyph>
<glyph name="uni20A9" format="2">
  <advance width="802"/>
  <unicode hex="20A9"/>
  <anchor x="344" y="0" name="bottom"/>
  <anchor x="496" y="714" name="top"/>
  <anchor x="877.009" y="714.0" name="topright"/>
  <outline>
    <contour>
      <point x="68" y="408" type="line"/>
      <point x="780" y="408" type="line"/>
      <point x="785" y="433" type="line"/>
      <point x="73" y="433" type="line"/>
    </contour>
    <contour>
      <point x="43" y="285" type="line"/>
      <point x="755" y="285" type="line"/>
      <point x="760" y="310" type="line"/>
      <point x="48" y="310" type="line"/>
    </contour>
    <component base="W"/>
  </outline>
</glyph>
<glyph name="uni20B4" format="2">
  <advance width="400"/>
  <unicode hex="20B4"/>
  <anchor x="148" y="0" name="bottom"/>
  <anchor x="300" y="714" name="top"/>
  <outline>
    <contour>
      <point x="17" y="285" type="line"/>
      <point x="374" y="285" type="line"/>
      <point x="379" y="310" type="line"/>
      <point x="22" y="310" type="line"/>
    </contour>
    <contour>
      <point x="42" y="408" type="line"/>
      <point x="399" y="408" type="line"/>
      <point x="404" y="433" type="line"/>
      <point x="47" y="433" type="line"/>
    </contour>
    <component base="uni01A7" xOffset="5"/>
  </outline>
</glyph>
<glyph name="uni20B5" format="2">
  <advance width="456"/>
  <unicode hex="20B5"/>
  <anchor x="202" y="0" name="bottom"/>
  <anchor x="344" y="714" name="top"/>
  <anchor x="531" y="714" name="topright"/>
  <outline>
    <contour>
      <point x="157" y="-87" type="line"/>
      <point x="185" y="-87" type="line"/>
      <point x="366" y="759" type="line"/>
      <point x="338" y="759" type="line"/>
    </contour>
    <component base="C"/>
  </outline>
</glyph>
<glyph name="planckconstantovertwopi" format="2">
  <advance width="395"/>
  <unicode hex="210F"/>
  <anchor x="147" y="0" name="bottom"/>
  <anchor x="261" y="268" name="center"/>
  <anchor x="309" y="760" name="top"/>
  <anchor x="499" y="760" name="topright"/>
  <outline>
    <contour>
      <point x="61" y="519" type="line"/>
      <point x="274" y="653" type="line"/>
      <point x="282" y="683" type="line"/>
      <point x="69" y="549" type="line"/>
    </contour>
    <component base="h"/>
  </outline>
</glyph>
<glyph name="response" format="2">
  <advance width="482"/>
  <unicode hex="211F"/>
  <anchor x="185" y="0" name="bottom"/>
  <anchor x="337" y="714" name="top"/>
  <anchor x="557" y="714" name="topright"/>
  <outline>
    <contour>
      <point x="29" y="-119" type="line"/>
      <point x="57" y="-119" type="line"/>
      <point x="420" y="787" type="line"/>
      <point x="256" y="857" type="line"/>
      <point x="247" y="835" type="line"/>
      <point x="386" y="775" type="line"/>
    </contour>
    <component base="R"/>
  </outline>
</glyph>
<glyph name="turnedSansSerifL" format="2">
  <advance width="451"/>
  <unicode hex="2142"/>
  <outline>
    <contour>
      <point x="166" y="0" type="line"/>
      <point x="349" y="0" type="line"/>
      <point x="354" y="20" type="line"/>
      <point x="342" y="20" type="line" smooth="yes"/>
      <point x="275" y="20"/>
      <point x="278" y="33"/>
      <point x="297" y="123" type="curve" smooth="yes"/>
      <point x="403" y="618" type="line" smooth="yes"/>
      <point x="418" y="690"/>
      <point x="422" y="694"/>
      <point x="486" y="694" type="curve" smooth="yes"/>
      <point x="496" y="694" type="line"/>
      <point x="501" y="714" type="line"/>
      <point x="121" y="714" type="line"/>
      <point x="71" y="510" type="line"/>
      <point x="93" y="510" type="line"/>
      <point x="120" y="607" type="line" smooth="yes"/>
      <point x="142" y="687"/>
      <point x="147" y="689"/>
      <point x="217" y="689" type="curve" smooth="yes"/>
      <point x="390" y="689" type="line"/>
      <point x="264" y="96" type="line"/>
      <point x="249" y="24"/>
      <point x="245" y="20"/>
      <point x="181" y="20" type="curve" smooth="yes"/>
      <point x="171" y="20" type="line"/>
    </contour>
  </outline>
</glyph>
<glyph name="reversedSansSerifL" format="2">
  <advance width="451"/>
  <unicode hex="2143"/>
  <outline>
    <contour>
      <point x="-37" y="0" type="line"/>
      <point x="349" y="0" type="line"/>
      <point x="354" y="20" type="line"/>
      <point x="342" y="20" type="line" smooth="yes"/>
      <point x="275" y="20"/>
      <point x="278" y="33"/>
      <point x="297" y="123" type="curve" smooth="yes"/>
      <point x="403" y="618" type="line" smooth="yes"/>
      <point x="418" y="690"/>
      <point x="422" y="694"/>
      <point x="486" y="694" type="curve" smooth="yes"/>
      <point x="496" y="694" type="line"/>
      <point x="501" y="714" type="line"/>
      <point x="287" y="714" type="line"/>
      <point x="282" y="694" type="line"/>
      <point x="324" y="694" type="line" smooth="yes"/>
      <point x="391" y="694"/>
      <point x="388" y="681"/>
      <point x="369" y="591" type="curve" smooth="yes"/>
      <point x="249" y="25" type="line"/>
      <point x="60" y="25" type="line" smooth="yes"/>
      <point x="-4" y="25"/>
      <point x="-1" y="27"/>
      <point x="7" y="105" type="curve"/>
      <point x="15" y="160" type="line"/>
      <point x="-7" y="160" type="line"/>
    </contour>
  </outline>
</glyph>
<glyph name="uni2C65" format="2">
  <advance width="400"/>
  <unicode hex="2C65"/>
  <anchor x="87" y="-209" name="bottom"/>
  <anchor x="283" y="714" name="top"/>
  <anchor x="412" y="536" name="topright"/>
  <outline>
    <contour>
      <point x="30" y="-209" type="line"/>
      <point x="56" y="-209" type="line"/>
      <point x="330" y="714" type="line"/>
      <point x="304" y="714" type="line"/>
    </contour>
    <component base="a"/>
  </outline>
</glyph>
<glyph name="uni2DF5" format="2">
  <unicode hex="2DF5"/>
  <anchor x="57" y="536" name="_top"/>
  <anchor x="74" y="619" name="bottom"/>
  <anchor x="119" y="835" name="top"/>
  <outline>
    <contour>
      <point x="245" y="834" type="line"/>
      <point x="94" y="834" type="line" smooth="yes"/>
      <point x="2" y="834"/>
      <point x="-36" y="751"/>
      <point x="-36" y="692" type="curve" smooth="yes"/>
      <point x="-36" y="638"/>
      <point x="-16" y="616"/>
      <point x="18" y="616" type="curve" smooth="yes"/>
      <point x="54" y="616"/>
      <point x="71" y="642"/>
      <point x="71" y="654" type="curve" smooth="yes"/>
      <point x="71" y="658"/>
      <point x="70" y="660"/>
      <point x="67" y="660" type="curve"/>
      <point x="58" y="643"/>
      <point x="41" y="626"/>
      <point x="18" y="626" type="curve" smooth="yes"/>
      <point x="-7" y="626"/>
      <point x="-23" y="647"/>
      <point x="-23" y="691" type="curve" smooth="yes"/>
      <point x="-23" y="739"/>
      <point x="9" y="824"/>
      <point x="93" y="824" type="curve" smooth="yes"/>
      <point x="160" y="824" type="line"/>
      <point x="125" y="658" type="line" smooth="yes"/>
      <point x="119" y="630"/>
      <point x="116" y="628"/>
      <point x="89" y="628" type="curve" smooth="yes"/>
      <point x="83" y="628" type="line"/>
      <point x="81" y="620" type="line"/>
      <point x="168" y="620" type="line"/>
      <point x="170" y="628" type="line"/>
      <point x="161" y="628" type="line" smooth="yes"/>
      <point x="134" y="628"/>
      <point x="132" y="630"/>
      <point x="138" y="658" type="curve" smooth="yes"/>
      <point x="173" y="824" type="line"/>
      <point x="208" y="824" type="line" smooth="yes"/>
      <point x="232" y="824"/>
      <point x="233" y="823"/>
      <point x="229" y="792" type="curve" smooth="yes"/>
      <point x="227" y="778" type="line"/>
      <point x="236" y="778" type="line"/>
    </contour>
  </outline>
</glyph>
<glyph name="uni2E44" format="2">
  <advance width="187"/>
  <unicode hex="2E44"/>
  <outline>
    <contour>
      <point x="125" y="579" type="line"/>
      <point x="246" y="737" type="line"/>
      <point x="223" y="752" type="line"/>
      <point x="109" y="591" type="line"/>
    </contour>
    <contour>
      <point x="-5" y="-35" type="line"/>
      <point x="116" y="123" type="line"/>
      <point x="93" y="138" type="line"/>
      <point x="-21" y="-23" type="line"/>
    </contour>
  </outline>
</glyph>
<glyph name="uniA642" format="2">
  <advance width="419"/>
  <unicode hex="A642"/>
  <outline>
    <contour>
      <point x="75" y="366" type="line"/>
      <point x="368" y="366" type="line"/>
      <point x="372" y="391" type="line"/>
      <point x="80" y="391" type="line"/>
    </contour>
    <component base="uniA640"/>
  </outline>
</glyph>
<glyph name="uniA643" format="2">
  <advance width="357"/>
  <unicode hex="A643"/>
  <outline>
    <contour>
      <point x="69" y="259" type="line"/>
      <point x="283" y="259" type="line"/>
      <point x="288" y="284" type="line"/>
      <point x="74" y="284" type="line"/>
    </contour>
    <component base="uniA641"/>
  </outline>
</glyph>
<glyph name="uniA671" format="2">
  <unicode hex="A671"/>
  <outline>
    <contour>
      <point x="-214" y="579" type="line"/>
      <point x="-187" y="579" type="line"/>
      <point x="-187" y="680" type="line"/>
      <point x="186" y="680" type="line"/>
      <point x="186" y="579" type="line"/>
      <point x="213" y="579" type="line"/>
      <point x="213" y="706" type="line"/>
      <point x="-214" y="706" type="line"/>
    </contour>
    <contour>
      <point x="-214" y="-170" type="line"/>
      <point x="213" y="-170" type="line"/>
      <point x="213" y="-43" type="line"/>
      <point x="186" y="-43" type="line"/>
      <point x="186" y="-144" type="line"/>
      <point x="-187" y="-144" type="line"/>
      <point x="-187" y="-43" type="line"/>
      <point x="-214" y="-43" type="line"/>
    </contour>
  </outline>
</glyph>
<glyph name="uniA741" format="2">
  <advance width="402"/>
  <unicode hex="A741"/>
  <anchor x="154" y="0" name="bottom"/>
  <anchor x="316" y="760" name="top"/>
  <anchor x="505" y="760" name="topright"/>
  <outline>
    <contour>
      <point x="88" y="621" type="line"/>
      <point x="276" y="621" type="line"/>
      <point x="281" y="646" type="line"/>
      <point x="93" y="646" type="line"/>
    </contour>
    <component base="k"/>
  </outline>
</glyph>
<glyph name="uniA745" format="2">
  <advance width="402"/>
  <unicode hex="A745"/>
  <anchor x="154" y="0" name="bottom"/>
  <anchor x="316" y="760" name="top"/>
  <anchor x="505" y="760" name="topright"/>
  <outline>
    <contour>
      <point x="153" y="93" type="line"/>
      <point x="351" y="205" type="line"/>
      <point x="340" y="227" type="line"/>
      <point x="142" y="115" type="line"/>
    </contour>
    <contour>
      <point x="88" y="621" type="line"/>
      <point x="276" y="621" type="line"/>
      <point x="281" y="646" type="line"/>
      <point x="93" y="646" type="line"/>
    </contour>
    <component base="k"/>
  </outline>
</glyph>
<glyph name="uniA748" format="2">
  <advance width="462"/>
  <unicode hex="A748"/>
  <anchor x="174" y="0" name="bottom"/>
  <anchor x="269" y="357" name="center"/>
  <anchor x="326" y="714" name="top"/>
  <anchor x="537" y="714" name="topright"/>
  <outline>
    <contour>
      <point x="101" y="570" type="line"/>
      <point x="289" y="570" type="line"/>
      <point x="294" y="595" type="line"/>
      <point x="106" y="595" type="line"/>
    </contour>
    <component base="L"/>
  </outline>
</glyph>
<glyph name="uniA74A" format="2">
  <advance width="537"/>
  <unicode hex="A74A"/>
  <anchor x="212" y="0" name="bottom"/>
  <anchor x="307" y="357" name="center"/>
  <anchor x="364" y="714" name="top"/>
  <anchor x="612" y="714" name="topright"/>
  <outline>
    <contour>
      <point x="22" y="361" type="line"/>
      <point x="552" y="361" type="line"/>
      <point x="557" y="386" type="line"/>
      <point x="27" y="386" type="line"/>
    </contour>
    <component base="O"/>
  </outline>
</glyph>
<glyph name="uniA74B" format="2">
  <advance width="412"/>
  <unicode hex="A74B"/>
  <anchor x="149" y="0" name="bottom"/>
  <anchor x="263" y="268" name="center"/>
  <anchor x="263" y="536" name="top"/>
  <anchor x="449" y="536" name="topright"/>
  <outline>
    <contour>
      <point x="0" y="267" type="line"/>
      <point x="412" y="267" type="line"/>
      <point x="417" y="292" type="line"/>
      <point x="5" y="292" type="line"/>
    </contour>
    <component base="o"/>
  </outline>
</glyph>
<glyph name="uniA750" format="2">
  <advance width="449"/>
  <unicode hex="A750"/>
  <anchor x="74" y="0" name="bottom"/>
  <anchor x="320" y="714" name="top"/>
  <anchor x="524" y="714" name="topright"/>
  <outline>
    <contour>
      <point x="19" y="144" type="line"/>
      <point x="225" y="144" type="line"/>
      <point x="230" y="169" type="line"/>
      <point x="24" y="169" type="line"/>
    </contour>
    <component base="P"/>
  </outline>
</glyph>
<glyph name="uniA756" format="2">
  <advance width="537"/>
  <unicode hex="A756"/>
  <anchor x="157" y="-209" name="bottom"/>
  <anchor x="353" y="714" name="top"/>
  <anchor x="571" y="714" name="topright"/>
  <outline>
    <contour>
      <point x="127" y="-173" type="line"/>
      <point x="342" y="-97" type="line"/>
      <point x="334" y="-73" type="line"/>
      <point x="119" y="-149" type="line"/>
    </contour>
    <component base="Q"/>
  </outline>
</glyph>
<glyph name="uniA757" format="2">
  <advance width="385"/>
  <unicode hex="A757"/>
  <anchor x="79" y="-240" name="bottom"/>
  <anchor x="244" y="536" name="top"/>
  <anchor x="411" y="536" name="topright"/>
  <outline>
    <contour>
      <point x="96" y="-121" type="line"/>
      <point x="302" y="-121" type="line"/>
      <point x="307" y="-96" type="line"/>
      <point x="101" y="-96" type="line"/>
    </contour>
    <component base="q"/>
  </outline>
</glyph>
<glyph name="uniA764" format="2">
  <advance width="449"/>
  <unicode hex="A764"/>
  <outline>
    <contour>
      <point x="-23" y="0" type="line"/>
      <point x="177" y="0" type="line"/>
      <point x="181" y="20" type="line"/>
      <point x="144" y="20" type="line" smooth="yes"/>
      <point x="111" y="20"/>
      <point x="98" y="25"/>
      <point x="98" y="51" type="curve" smooth="yes"/>
      <point x="98" y="64"/>
      <point x="104" y="82"/>
      <point x="107" y="108" type="curve" smooth="yes"/>
      <point x="108" y="118" type="line"/>
      <point x="160" y="118" type="line" smooth="yes"/>
      <point x="346" y="118"/>
      <point x="423" y="242"/>
      <point x="423" y="385" type="curve" smooth="yes"/>
      <point x="423" y="503"/>
      <point x="352" y="548"/>
      <point x="251" y="548" type="curve" smooth="yes"/>
      <point x="200" y="548" type="line"/>
      <point x="212" y="601" type="line"/>
      <point x="318" y="601" type="line"/>
      <point x="323" y="626" type="line"/>
      <point x="218" y="626" type="line"/>
      <point x="232" y="683"/>
      <point x="243" y="694"/>
      <point x="288" y="694" type="curve" smooth="yes"/>
      <point x="311" y="694" type="line"/>
      <point x="315" y="714" type="line"/>
      <point x="129" y="714" type="line"/>
      <point x="125" y="694" type="line"/>
      <point x="148" y="694" type="line" smooth="yes"/>
      <point x="198" y="694"/>
      <point x="199" y="679"/>
      <point x="189" y="626" type="curve"/>
      <point x="95" y="626" type="line"/>
      <point x="90" y="601" type="line"/>
      <point x="184" y="601" type="line"/>
      <point x="79" y="108" type="line" smooth="yes"/>
      <point x="63" y="31"/>
      <point x="54" y="20"/>
      <point x="4" y="20" type="curve" smooth="yes"/>
      <point x="-19" y="20" type="line"/>
    </contour>
    <contour>
      <point x="114" y="143" type="line"/>
      <point x="195" y="523" type="line"/>
      <point x="247" y="523" type="line" smooth="yes"/>
      <point x="343" y="523"/>
      <point x="395" y="483"/>
      <point x="395" y="384" type="curve" smooth="yes"/>
      <point x="395" y="255"/>
      <point x="328" y="143"/>
      <point x="162" y="143" type="curve" smooth="yes"/>
    </contour>
  </outline>
</glyph>
<glyph name="uniA765" format="2">
  <advance width="386"/>
  <unicode hex="A765"/>
  <anchor x="85" y="-240" name="bottom"/>
  <anchor x="298" y="760" name="top"/>
  <outline>
    <contour>
      <point x="80" y="621" type="line"/>
      <point x="308" y="621" type="line"/>
      <point x="313" y="646" type="line"/>
      <point x="85" y="646" type="line"/>
    </contour>
    <component base="thorn"/>
  </outline>
</glyph>
<glyph name="uniA767" format="2">
  <advance width="386"/>
  <unicode hex="A767"/>
  <anchor x="85" y="-240" name="bottom"/>
  <anchor x="298" y="760" name="top"/>
  <outline>
    <contour>
      <point x="-94" y="-111" type="line"/>
      <point x="129" y="-111" type="line"/>
      <point x="134" y="-86" type="line"/>
      <point x="-89" y="-86" type="line"/>
    </contour>
    <component base="thorn"/>
  </outline>
</glyph>
<glyph name="uniA78B" format="2">
  <advance width="205"/>
  <unicode hex="A78B"/>
  <outline>
    <contour>
      <point x="64" y="187" type="line"/>
      <point x="88" y="187" type="line"/>
      <point x="204" y="714" type="line"/>
      <point x="174" y="714" type="line"/>
    </contour>
  </outline>
</glyph>
<glyph name="uniA792" format="2">
  <advance width="493"/>
  <unicode hex="A792"/>
  <anchor x="239" y="0" name="bottom"/>
  <anchor x="381" y="714" name="top"/>
  <anchor x="568" y="714" name="topright"/>
  <outline>
    <contour>
      <point x="19" y="356" type="line"/>
      <point x="247" y="356" type="line"/>
      <point x="253" y="384" type="line"/>
      <point x="25" y="384" type="line"/>
    </contour>
    <component base="C" xOffset="37"/>
  </outline>
</glyph>
<glyph name="uniA799" format="2">
  <advance width="187"/>
  <unicode hex="A799"/>
  <anchor x="-81" y="-240" name="bottom"/>
  <anchor x="272" y="770" name="top"/>
  <anchor x="357" y="770" name="topright"/>
  <outline>
    <contour>
      <point x="9" y="259" type="line"/>
      <point x="190" y="259" type="line"/>
      <point x="195" y="284" type="line"/>
      <point x="14" y="284" type="line"/>
    </contour>
    <component base="f"/>
  </outline>
</glyph>
<glyph name="uniA7A0" format="2">
  <advance width="513"/>
  <unicode hex="A7A0"/>
  <anchor x="217" y="0" name="bottom"/>
  <anchor x="369" y="714" name="top"/>
  <anchor x="563" y="714" name="topright"/>
  <outline>
    <contour>
      <point x="-10" y="187" type="line"/>
      <point x="515" y="357" type="line"/>
      <point x="522" y="385" type="line"/>
      <point x="-3" y="215" type="line"/>
    </contour>
    <component base="G"/>
  </outline>
</glyph>
<glyph name="uniA7A1" format="2">
  <advance width="388"/>
  <unicode hex="A7A1"/>
  <anchor x="73" y="-240" name="bottom"/>
  <anchor x="238" y="536" name="top"/>
  <anchor x="425" y="536" name="topright"/>
  <outline>
    <contour>
      <point x="22" y="299" type="line"/>
      <point x="389" y="403" type="line"/>
      <point x="397" y="430" type="line"/>
      <point x="30" y="326" type="line"/>
    </contour>
    <component base="g"/>
  </outline>
</glyph>
<glyph name="uniA7A2" format="2">
  <advance width="514"/>
  <unicode hex="A7A2"/>
  <anchor x="200" y="0" name="bottom"/>
  <anchor x="352" y="714" name="top"/>
  <anchor x="589" y="714" name="topright"/>
  <outline>
    <contour>
      <point x="-3" y="89" type="line"/>
      <point x="451" y="232" type="line"/>
      <point x="456" y="258" type="line"/>
      <point x="2" y="115" type="line"/>
    </contour>
    <component base="K"/>
  </outline>
</glyph>
<glyph name="uniA7A3" format="2">
  <advance width="402"/>
  <unicode hex="A7A3"/>
  <anchor x="154" y="0" name="bottom"/>
  <anchor x="316" y="760" name="top"/>
  <anchor x="505" y="760" name="topright"/>
  <outline>
    <contour>
      <point x="-23" y="90" type="line"/>
      <point x="376" y="161" type="line"/>
      <point x="381" y="186" type="line"/>
      <point x="-18" y="115" type="line"/>
    </contour>
    <component base="k"/>
  </outline>
</glyph>
<glyph name="uniA7A5" format="2">
  <advance width="400"/>
  <unicode hex="A7A5"/>
  <anchor x="143" y="0" name="bottom"/>
  <anchor x="257" y="536" name="top"/>
  <anchor x="437" y="536" name="topright"/>
  <outline>
    <contour>
      <point x="8" y="235" type="line"/>
      <point x="378" y="289" type="line"/>
      <point x="385" y="311" type="line"/>
      <point x="15" y="257" type="line"/>
    </contour>
    <component base="n"/>
  </outline>
</glyph>
<glyph name="uniA7A6" format="2">
  <advance width="482"/>
  <unicode hex="A7A6"/>
  <anchor x="185" y="0" name="bottom"/>
  <anchor x="337" y="714" name="top"/>
  <anchor x="557" y="714" name="topright"/>
  <outline>
    <contour>
      <point x="93" y="446" type="line"/>
      <point x="515" y="563" type="line"/>
      <point x="520" y="590" type="line"/>
      <point x="98" y="473" type="line"/>
    </contour>
    <component base="R"/>
  </outline>
</glyph>
<glyph name="uniA7A7" format="2">
  <advance width="291"/>
  <unicode hex="A7A7"/>
  <anchor x="38" y="0" name="bottom"/>
  <anchor x="202" y="536" name="top"/>
  <anchor x="328" y="536" name="topright"/>
  <outline>
    <contour>
      <point x="4" y="215" type="line"/>
      <point x="206" y="272" type="line"/>
      <point x="211" y="296" type="line"/>
      <point x="9" y="239" type="line"/>
    </contour>
    <component base="r"/>
  </outline>
</glyph>
<glyph name="uniA7A8" format="2">
  <advance width="390"/>
  <unicode hex="A7A8"/>
  <anchor x="139" y="0" name="bottom"/>
  <anchor x="291" y="714" name="top"/>
  <anchor x="465" y="714" name="topright"/>
  <outline>
    <contour>
      <point x="58" y="301" type="line"/>
      <point x="381" y="391" type="line"/>
      <point x="386" y="418" type="line"/>
      <point x="63" y="328" type="line"/>
    </contour>
    <component base="S"/>
  </outline>
</glyph>
<glyph name="uniA7A9" format="2">
  <advance width="317"/>
  <unicode hex="A7A9"/>
  <anchor x="102" y="0" name="bottom"/>
  <anchor x="216" y="536" name="top"/>
  <anchor x="354" y="536" name="topright"/>
  <outline>
    <contour>
      <point x="50" y="241" type="line"/>
      <point x="275" y="301" type="line"/>
      <point x="280" y="327" type="line"/>
      <point x="55" y="267" type="line"/>
    </contour>
    <component base="s"/>
  </outline>
</glyph>
<glyph name="uniA7AE" format="2">
  <advance width="407"/>
  <unicode hex="A7AE"/>
  <guideline x="273" y="695" angle="78"/>
  <guideline x="116" y="649" angle="78"/>
  <outline>
    <contour>
      <point x="-25" y="0" type="line"/>
      <point x="314" y="0" type="line"/>
      <point x="348" y="138" type="line"/>
      <point x="326" y="138" type="line"/>
      <point x="314" y="95" type="line" smooth="yes"/>
      <point x="296" y="31"/>
      <point x="293" y="25"/>
      <point x="236" y="25" type="curve" smooth="yes"/>
      <point x="159" y="25" type="line"/>
      <point x="300" y="689" type="line"/>
      <point x="391" y="689" type="line" smooth="yes"/>
      <point x="418" y="689"/>
      <point x="429" y="687"/>
      <point x="429" y="657" type="curve" smooth="yes"/>
      <point x="429" y="640"/>
      <point x="426" y="615"/>
      <point x="420" y="576" type="curve"/>
      <point x="442" y="576" type="line"/>
      <point x="469" y="714" type="line"/>
      <point x="130" y="714" type="line"/>
      <point x="96" y="576" type="line"/>
      <point x="118" y="576" type="line"/>
      <point x="130" y="619" type="line" smooth="yes"/>
      <point x="148" y="683"/>
      <point x="151" y="689"/>
      <point x="208" y="689" type="curve" smooth="yes"/>
      <point x="272" y="689" type="line"/>
      <point x="131" y="25" type="line"/>
      <point x="53" y="25" type="line" smooth="yes"/>
      <point x="26" y="25"/>
      <point x="15" y="27"/>
      <point x="15" y="57" type="curve" smooth="yes"/>
      <point x="15" y="74"/>
      <point x="18" y="99"/>
      <point x="24" y="138" type="curve"/>
      <point x="2" y="138" type="line"/>
    </contour>
  </outline>
</glyph>
<glyph name="uniA7B9" format="2">
  <advance width="458"/>
  <unicode hex="A7B9"/>
  <anchor x="145" y="0" name="bottom"/>
  <anchor x="259" y="536" name="top"/>
  <anchor x="441" y="536" name="topright"/>
  <outline>
    <contour>
      <point x="11" y="-11" type="line"/>
      <point x="37" y="-11" type="line"/>
      <point x="420" y="582" type="line"/>
      <point x="394" y="582" type="line"/>
    </contour>
    <component base="u"/>
  </outline>
</glyph>
<glyph name="uniA7C9" format="2">
  <advance width="390"/>
  <unicode hex="A7C9"/>
  <anchor x="139" y="0" name="bottom"/>
  <anchor x="291" y="714" name="top"/>
  <anchor x="465" y="714" name="topright"/>
  <outline>
    <contour>
      <point x="54" y="355" type="line"/>
      <point x="366" y="355" type="line"/>
      <point x="372" y="380" type="line"/>
      <point x="60" y="380" type="line"/>
    </contour>
    <component base="S"/>
  </outline>
</glyph>
<glyph name="uniA7CA" format="2">
  <advance width="317"/>
  <unicode hex="A7CA"/>
  <anchor x="102" y="0" name="bottom"/>
  <anchor x="216" y="536" name="top"/>
  <anchor x="354" y="536" name="topright"/>
  <outline>
    <contour>
      <point x="46" y="263" type="line"/>
      <point x="284" y="263" type="line"/>
      <point x="290" y="288" type="line"/>
      <point x="52" y="288" type="line"/>
    </contour>
    <component base="s"/>
  </outline>
</glyph>
<glyph name="uniA7FF" format="2">
  <advance width="725"/>
  <unicode hex="A7FF"/>
  <outline>
    <contour>
      <point x="37" y="-7" type="curve" smooth="yes"/>
      <point x="52" y="-7"/>
      <point x="59" y="7"/>
      <point x="59" y="25" type="curve"/>
      <point x="38" y="25"/>
      <point x="31" y="36"/>
      <point x="31" y="56" type="curve" smooth="yes"/>
      <point x="31" y="158"/>
      <point x="113" y="320"/>
      <point x="228" y="498" type="curve"/>
      <point x="230" y="498" type="line"/>
      <point x="217" y="-13" type="line"/>
      <point x="259" y="1" type="line"/>
      <point x="331" y="153"/>
      <point x="400" y="306"/>
      <point x="464" y="458" type="curve"/>
      <point x="466" y="302"/>
      <point x="465" y="146"/>
      <point x="461" y="-10" type="curve"/>
      <point x="496" y="1" type="line"/>
      <point x="626" y="194"/>
      <point x="717" y="363"/>
      <point x="717" y="485" type="curve" smooth="yes"/>
      <point x="717" y="520"/>
      <point x="706" y="544"/>
      <point x="683" y="544" type="curve" smooth="yes"/>
      <point x="668" y="544"/>
      <point x="661" y="530"/>
      <point x="661" y="512" type="curve"/>
      <point x="682" y="512"/>
      <point x="689" y="501"/>
      <point x="689" y="481" type="curve" smooth="yes"/>
      <point x="689" y="379"/>
      <point x="607" y="217"/>
      <point x="492" y="39" type="curve"/>
      <point x="489" y="39" type="line"/>
      <point x="493" y="133"/>
      <point x="494" y="391"/>
      <point x="491" y="531" type="curve"/>
      <point x="465" y="527" type="line"/>
      <point x="397" y="364"/>
      <point x="324" y="202"/>
      <point x="248" y="39" type="curve"/>
      <point x="245" y="39" type="line"/>
      <point x="260" y="547" type="line"/>
      <point x="224" y="536" type="line"/>
      <point x="94" y="343"/>
      <point x="3" y="174"/>
      <point x="3" y="52" type="curve" smooth="yes"/>
      <point x="3" y="17"/>
      <point x="14" y="-7"/>
    </contour>
  </outline>
</glyph>
<glyph name="uniAB30" format="2">
  <advance width="400"/>
  <unicode hex="AB30"/>
  <anchor x="152" y="0" name="bottom"/>
  <anchor x="266" y="536" name="top"/>
  <outline>
    <contour>
      <point x="0" y="267" type="line"/>
      <point x="372" y="267" type="line"/>
      <point x="377" y="292" type="line"/>
      <point x="5" y="292" type="line"/>
    </contour>
    <component base="uni0251"/>
  </outline>
</glyph>
<glyph name="uniAB60" format="2">
  <advance width="513"/>
  <unicode hex="AB60"/>
  <outline>
    <contour>
      <point x="328" y="-10" type="curve" smooth="yes"/>
      <point x="417" y="-10"/>
      <point x="468" y="60"/>
      <point x="468" y="177" type="curve" smooth="yes"/>
      <point x="468" y="248"/>
      <point x="433" y="303"/>
      <point x="357" y="303" type="curve" smooth="yes"/>
      <point x="314" y="303"/>
      <point x="284" y="293"/>
      <point x="268" y="286" type="curve"/>
      <point x="321" y="536" type="line"/>
      <point x="230" y="536" type="line"/>
      <point x="225" y="516" type="line"/>
      <point x="235" y="516" type="line" smooth="yes"/>
      <point x="273" y="516"/>
      <point x="280" y="513"/>
      <point x="280" y="488" type="curve" smooth="yes"/>
      <point x="280" y="479"/>
      <point x="274" y="449"/>
      <point x="270" y="428" type="curve" smooth="yes"/>
      <point x="233" y="253" type="line" smooth="yes"/>
      <point x="224" y="213"/>
      <point x="216" y="169"/>
      <point x="216" y="115" type="curve" smooth="yes"/>
      <point x="216" y="35"/>
      <point x="263" y="-10"/>
    </contour>
    <contour>
      <point x="87" y="-9" type="curve" smooth="yes"/>
      <point x="110" y="-9"/>
      <point x="139" y="6"/>
      <point x="158" y="31" type="curve"/>
      <point x="143" y="48" type="line"/>
      <point x="130" y="32"/>
      <point x="108" y="16"/>
      <point x="89" y="16" type="curve" smooth="yes"/>
      <point x="72" y="16"/>
      <point x="54" y="27"/>
      <point x="54" y="63" type="curve" smooth="yes"/>
      <point x="54" y="101"/>
      <point x="60" y="136"/>
      <point x="70" y="183" type="curve" smooth="yes"/>
      <point x="145" y="536" type="line"/>
      <point x="54" y="536" type="line"/>
      <point x="49" y="516" type="line"/>
      <point x="59" y="516" type="line" smooth="yes"/>
      <point x="97" y="516"/>
      <point x="102" y="513"/>
      <point x="102" y="488" type="curve" smooth="yes"/>
      <point x="102" y="479"/>
      <point x="98" y="449"/>
      <point x="94" y="428" type="curve" smooth="yes"/>
      <point x="42" y="183" type="line" smooth="yes"/>
      <point x="32" y="136"/>
      <point x="26" y="101"/>
      <point x="26" y="63" type="curve" smooth="yes"/>
      <point x="26" y="10"/>
      <point x="54" y="-9"/>
    </contour>
    <contour>
      <point x="330" y="15" type="curve" smooth="yes"/>
      <point x="283" y="15"/>
      <point x="244" y="41"/>
      <point x="244" y="115" type="curve" smooth="yes"/>
      <point x="244" y="172"/>
      <point x="255" y="227"/>
      <point x="263" y="261" type="curve"/>
      <point x="283" y="270"/>
      <point x="312" y="278"/>
      <point x="354" y="278" type="curve" smooth="yes"/>
      <point x="419" y="278"/>
      <point x="440" y="234"/>
      <point x="440" y="176" type="curve" smooth="yes"/>
      <point x="440" y="79"/>
      <point x="402" y="15"/>
    </contour>
  </outline>
</glyph>
<glyph name="uniFE20" format="2">
  <unicode hex="FE20"/>
  <anchor x="46" y="536" name="_top"/>
  <outline>
    <contour>
      <point x="-216" y="597" type="curve"/>
      <point x="-197" y="597" type="line"/>
      <point x="-157" y="640"/>
      <point x="-77" y="711"/>
      <point x="83" y="711" type="curve"/>
      <point x="83" y="736" type="line"/>
      <point x="-86" y="736"/>
      <point x="-165" y="664"/>
    </contour>
  </outline>
</glyph>
<glyph name="uniFE22" format="2">
  <unicode hex="FE22"/>
  <anchor x="67" y="536" name="_top"/>
  <outline>
    <contour>
      <point x="-229" y="597" type="curve"/>
      <point x="-206" y="597" type="line"/>
      <point x="-196" y="645"/>
      <point x="-164" y="685"/>
      <point x="-88" y="685" type="curve" smooth="yes"/>
      <point x="-39" y="685"/>
      <point x="10" y="677"/>
      <point x="88" y="637" type="curve"/>
      <point x="88" y="664" type="line"/>
      <point x="20" y="699"/>
      <point x="-27" y="710"/>
      <point x="-88" y="710" type="curve" smooth="yes"/>
      <point x="-169" y="710"/>
      <point x="-214" y="669"/>
    </contour>
  </outline>
</glyph>
<glyph name="uniFE23" format="2">
  <unicode hex="FE23"/>
  <anchor x="48" y="536" name="_top"/>
  <outline>
    <contour>
      <point x="252" y="597" type="curve" smooth="yes"/>
      <point x="333" y="597"/>
      <point x="378" y="638"/>
      <point x="393" y="710" type="curve"/>
      <point x="370" y="710" type="line"/>
      <point x="360" y="662"/>
      <point x="328" y="622"/>
      <point x="252" y="622" type="curve" smooth="yes"/>
      <point x="203" y="622"/>
      <point x="154" y="630"/>
      <point x="76" y="670" type="curve"/>
      <point x="76" y="643" type="line"/>
      <point x="144" y="608"/>
      <point x="191" y="597"/>
    </contour>
  </outline>
</glyph>
<glyph name="combiningmacronrighthalf" format="2">
  <unicode hex="FE25"/>
  <anchor x="57" y="536" name="_top"/>
  <outline>
    <contour>
      <point x="-196" y="693" type="line"/>
      <point x="88" y="693" type="line"/>
      <point x="97" y="724" type="line"/>
      <point x="-189" y="724" type="line"/>
    </contour>
  </outline>
</glyph>
<glyph name="uniFE27" format="2">
  <unicode hex="FE27"/>
  <anchor x="-57" y="0" name="_bottom"/>
  <outline>
    <contour>
      <point x="-97" y="-188" type="curve"/>
      <point x="-92" y="-163" type="line"/>
      <point x="-243" y="-163"/>
      <point x="-319" y="-137"/>
      <point x="-358" y="-49" type="curve"/>
      <point x="-379" y="-49" type="line"/>
      <point x="-338" y="-152"/>
      <point x="-258" y="-188"/>
    </contour>
  </outline>
</glyph>
<glyph name="uniFE28" format="2">
  <unicode hex="FE28"/>
  <anchor x="-57" y="0" name="_bottom"/>
  <outline>
    <contour>
      <point x="-97" y="-188" type="line"/>
      <point x="72" y="-188"/>
      <point x="156" y="-116"/>
      <point x="207" y="-49" type="curve"/>
      <point x="188" y="-49" type="line"/>
      <point x="148" y="-92"/>
      <point x="68" y="-163"/>
      <point x="-92" y="-163" type="curve"/>
    </contour>
  </outline>
</glyph>
<glyph name="uniFE29" format="2">
  <unicode hex="FE29"/>
  <anchor x="-57" y="0" name="_bottom"/>
  <outline>
    <contour>
      <point x="-405" y="-188" type="curve"/>
      <point x="-382" y="-188" type="line"/>
      <point x="-372" y="-140"/>
      <point x="-340" y="-100"/>
      <point x="-264" y="-100" type="curve" smooth="yes"/>
      <point x="-215" y="-100"/>
      <point x="-166" y="-108"/>
      <point x="-88" y="-148" type="curve"/>
      <point x="-88" y="-121" type="line"/>
      <point x="-156" y="-86"/>
      <point x="-203" y="-75"/>
      <point x="-264" y="-75" type="curve" smooth="yes"/>
      <point x="-345" y="-75"/>
      <point x="-390" y="-116"/>
    </contour>
  </outline>
</glyph>
<glyph name="uniFE2A" format="2">
  <unicode hex="FE2A"/>
  <anchor x="-57" y="0" name="_bottom"/>
  <outline>
    <contour>
      <point x="95" y="-188" type="curve" smooth="yes"/>
      <point x="176" y="-188"/>
      <point x="221" y="-147"/>
      <point x="236" y="-75" type="curve"/>
      <point x="213" y="-75" type="line"/>
      <point x="203" y="-123"/>
      <point x="171" y="-163"/>
      <point x="95" y="-163" type="curve" smooth="yes"/>
      <point x="46" y="-163"/>
      <point x="-3" y="-155"/>
      <point x="-81" y="-115" type="curve"/>
      <point x="-81" y="-142" type="line"/>
      <point x="-13" y="-177"/>
      <point x="34" y="-188"/>
    </contour>
  </outline>
</glyph>
<glyph name="uniFE2B" format="2">
  <unicode hex="FE2B"/>
  <anchor x="-57" y="0" name="_bottom"/>
  <outline>
    <contour>
      <point x="-95" y="-181" type="line"/>
      <point x="188" y="-181" type="line"/>
      <point x="193" y="-156" type="line"/>
      <point x="-90" y="-156" type="line"/>
    </contour>
  </outline>
</glyph>
<glyph name="uniFE2C" format="2">
  <unicode hex="FE2C"/>
  <anchor x="-57" y="0" name="_bottom"/>
  <outline>
    <contour>
      <point x="-378" y="-181" type="line"/>
      <point x="-95" y="-181" type="line"/>
      <point x="-90" y="-156" type="line"/>
      <point x="-373" y="-156" type="line"/>
    </contour>
  </outline>
</glyph>
<glyph name="uniFE2D" format="2">
  <unicode hex="FE2D"/>
  <anchor x="-57" y="0" name="_bottom"/>
  <outline>
    <contour>
      <point x="-377" y="-181" type="line"/>
      <point x="187" y="-181" type="line"/>
      <point x="192" y="-156" type="line"/>
      <point x="-372" y="-156" type="line"/>
    </contour>
  </outline>
</glyph>
<glyph name="uniFE2E" format="2">
  <unicode hex="FE2E"/>
  <anchor x="-9" y="536" name="_top"/>
  <outline>
    <contour>
      <point x="-4" y="580" type="curve" smooth="yes"/>
      <point x="12" y="580"/>
      <point x="19" y="596"/>
      <point x="27" y="627" type="curve"/>
      <point x="166" y="627" type="line"/>
      <point x="166" y="655" type="line"/>
      <point x="15" y="655" type="line" smooth="yes"/>
      <point x="-9" y="655"/>
      <point x="-17" y="624"/>
      <point x="-17" y="595" type="curve" smooth="yes"/>
      <point x="-17" y="584"/>
      <point x="-13" y="580"/>
    </contour>
  </outline>
</glyph>
<glyph name="uniFE2F" format="2">
  <unicode hex="FE2F"/>
  <anchor x="138" y="536" name="_top"/>
  <outline>
    <contour>
      <point x="-7" y="627" type="line"/>
      <point x="144" y="627" type="line" smooth="yes"/>
      <point x="167" y="627"/>
      <point x="175" y="658"/>
      <point x="175" y="687" type="curve" smooth="yes"/>
      <point x="175" y="698"/>
      <point x="171" y="702"/>
      <point x="162" y="702" type="curve" smooth="yes"/>
      <point x="147" y="702"/>
      <point x="140" y="686"/>
      <point x="132" y="655" type="curve"/>
      <point x="-7" y="655" type="line"/>
    </contour>
  </outline>
</glyph>
<glyph name="afii10084.loclSRB" format="2">
  <advance width="612"/>
  <anchor x="324" y="536" name="_top"/>
  <anchor x="344" y="637" name="top"/>
  <anchor x="258" y="0" name="bottom"/>
  <outline>
    <contour>
      <point x="104" y="606" type="line"/>
      <point x="572" y="606" type="line"/>
      <point x="577" y="631" type="line"/>
      <point x="109" y="631" type="line"/>
    </contour>
    <component base="afii10090"/>
  </outline>
</glyph>
<glyph name="dotacute" format="2">
  <advance width="455"/>
  <outline>
    <contour>
      <point x="289" y="606" type="line"/>
      <point x="304" y="606" type="line"/>
      <point x="341" y="649"/>
      <point x="384" y="714"/>
      <point x="408" y="758" type="curve"/>
      <point x="408" y="766" type="line"/>
      <point x="378" y="766" type="line"/>
      <point x="352" y="711"/>
      <point x="318" y="656"/>
      <point x="290" y="614" type="curve"/>
    </contour>
    <contour>
      <point x="248" y="643" type="curve" smooth="yes"/>
      <point x="263" y="643"/>
      <point x="278" y="652"/>
      <point x="278" y="680" type="curve" smooth="yes"/>
      <point x="278" y="703"/>
      <point x="267" y="712"/>
      <point x="250" y="712" type="curve" smooth="yes"/>
      <point x="230" y="712"/>
      <point x="219" y="696"/>
      <point x="219" y="675" type="curve" smooth="yes"/>
      <point x="219" y="652"/>
      <point x="229" y="643"/>
    </contour>
  </outline>
</glyph>
<glyph name="eth.sc" format="2">
  <advance width="442"/>
  <anchor x="155" y="0" name="bottom"/>
  <anchor x="277" y="571" name="top"/>
  <anchor x="221" y="286" name="center"/>
  <anchor x="483" y="571" name="topright"/>
  <outline>
    <contour>
      <point x="25" y="286" type="line"/>
      <point x="258" y="286" type="line"/>
      <point x="263" y="311" type="line"/>
      <point x="30" y="311" type="line"/>
    </contour>
    <component base="d.sc"/>
  </outline>
</glyph>
<glyph name="lslash.sc" format="2">
  <advance width="366"/>
  <anchor x="118" y="0" name="bottom"/>
  <anchor x="240" y="571" name="top"/>
  <anchor x="183" y="286" name="center"/>
  <anchor x="407" y="571" name="topright"/>
  <outline>
    <contour>
      <point x="20" y="188" type="line"/>
      <point x="254" y="310" type="line"/>
      <point x="260" y="340" type="line"/>
      <point x="26" y="219" type="line"/>
    </contour>
    <component base="l.sc"/>
  </outline>
</glyph>
<glyph name="macronacute" format="2">
  <advance width="500"/>
  <outline>
    <contour>
      <point x="298" y="711" type="line"/>
      <point x="313" y="711" type="line"/>
      <point x="354" y="754"/>
      <point x="402" y="819"/>
      <point x="430" y="863" type="curve"/>
      <point x="431" y="871" type="line"/>
      <point x="401" y="871" type="line"/>
      <point x="370" y="816"/>
      <point x="331" y="761"/>
      <point x="300" y="719" type="curve"/>
    </contour>
    <contour>
      <point x="206" y="606" type="line"/>
      <point x="434" y="606" type="line"/>
      <point x="440" y="634" type="line"/>
      <point x="212" y="634" type="line"/>
    </contour>
  </outline>
</glyph>
<glyph name="overscore.sc" format="2">
  <advance width="295"/>
  <outline>
    <contour>
      <point x="25" y="607" type="line"/>
      <point x="326" y="607" type="line"/>
      <point x="328" y="655" type="line"/>
      <point x="27" y="655" type="line"/>
    </contour>
  </outline>
</glyph>
<glyph name="uni0268dotless" format="2">
  <advance width="192"/>
  <anchor x="40" y="0" name="bottom"/>
  <anchor x="154" y="536" name="top"/>
  <outline>
    <contour>
      <point x="6" y="268" type="line"/>
      <point x="170" y="268" type="line"/>
      <point x="175" y="293" type="line"/>
      <point x="11" y="293" type="line"/>
    </contour>
    <component base="idotless"/>
  </outline>
</glyph>
<glyph name="uni02E5_uni02E9_uni02E5" format="2">
  <advance width="383"/>
  <outline>
    <contour>
      <point x="238" y="0" type="line"/>
      <point x="305" y="0" type="line"/>
      <point x="305" y="688" type="line"/>
      <point x="238" y="688" type="line"/>
      <point x="238" y="208" type="line"/>
      <point x="83" y="688" type="line"/>
      <point x="20" y="666" type="line"/>
    </contour>
  </outline>
</glyph>
<glyph name="uni1D24.old" format="2">
  <advance width="305"/>
  <anchor x="110" y="0" name="bottom"/>
  <anchor x="224" y="536" name="top"/>
  <outline>
    <contour>
      <point x="126" y="-8" type="curve" smooth="yes"/>
      <point x="192" y="-8"/>
      <point x="241" y="31"/>
      <point x="241" y="52" type="curve" smooth="yes"/>
      <point x="241" y="60"/>
      <point x="239" y="67"/>
      <point x="233" y="69" type="curve"/>
      <point x="209" y="39"/>
      <point x="177" y="16"/>
      <point x="128" y="16" type="curve" smooth="yes"/>
      <point x="72" y="16"/>
      <point x="44" y="62"/>
      <point x="44" y="114" type="curve" smooth="yes"/>
      <point x="44" y="170"/>
      <point x="68" y="218"/>
      <point x="176" y="271" type="curve" smooth="yes"/>
      <point x="271" y="316"/>
      <point x="314" y="364"/>
      <point x="314" y="439" type="curve" smooth="yes"/>
      <point x="314" y="509"/>
      <point x="277" y="543"/>
      <point x="218" y="543" type="curve" smooth="yes"/>
      <point x="134" y="543"/>
      <point x="106" y="467"/>
      <point x="106" y="438" type="curve" smooth="yes"/>
      <point x="106" y="421"/>
      <point x="117" y="418"/>
      <point x="127" y="418" type="curve"/>
      <point x="142" y="500"/>
      <point x="182" y="521"/>
      <point x="215" y="521" type="curve" smooth="yes"/>
      <point x="256" y="521"/>
      <point x="287" y="500"/>
      <point x="287" y="440" type="curve" smooth="yes"/>
      <point x="287" y="368"/>
      <point x="242" y="330"/>
      <point x="166" y="293" type="curve" smooth="yes"/>
      <point x="53" y="239"/>
      <point x="17" y="188"/>
      <point x="17" y="114" type="curve" smooth="yes"/>
      <point x="17" y="48"/>
      <point x="48" y="-8"/>
    </contour>
  </outline>
</glyph>
<glyph name="uogonek.loclNAV" format="2">
  <advance width="404"/>
  <anchor x="94" y="-240" name="bottom"/>
  <anchor x="259" y="536" name="top"/>
  <anchor x="441" y="536" name="topright"/>
  <outline>
    <contour>
      <point x="142" y="-240" type="curve" smooth="yes"/>
      <point x="164" y="-240"/>
      <point x="183" y="-234"/>
      <point x="200" y="-224" type="curve"/>
      <point x="206" y="-201" type="line"/>
      <point x="185" y="-213"/>
      <point x="171" y="-218"/>
      <point x="146" y="-218" type="curve" smooth="yes"/>
      <point x="119" y="-218"/>
      <point x="102" y="-199"/>
      <point x="102" y="-163" type="curve" smooth="yes"/>
      <point x="102" y="-105"/>
      <point x="133" y="-47"/>
      <point x="203" y="26" type="curve"/>
      <point x="179" y="26" type="line"/>
      <point x="116" y="-35"/>
      <point x="77" y="-103"/>
      <point x="77" y="-164" type="curve" smooth="yes"/>
      <point x="77" y="-208"/>
      <point x="98" y="-240"/>
    </contour>
    <component base="u"/>
  </outline>
</glyph>
<glyph name="zero.slash" format="2">
  <advance width="424"/>
  <outline>
    <contour>
      <point x="65" y="159" type="line"/>
      <point x="403" y="562" type="line"/>
      <point x="387" y="582" type="line"/>
      <point x="49" y="179" type="line"/>
    </contour>
    <component base="zero"/>
  </outline>
</glyph>
